<svg width="84" height="36" viewBox="0 0 84 36" fill="none" xmlns="http://www.w3.org/2000/svg">
<path d="M72.5969 0H64.4437H57.6049H37.2672V2.64757H39.3234C39.6586 2.64757 39.9749 2.68426 40.2799 2.75957C40.5812 2.83296 40.8505 2.97586 41.0802 3.18828C41.3118 3.40071 41.4907 3.70582 41.6187 4.1075C41.7467 4.50917 41.8108 5.04409 41.8108 5.71419V24.1506C41.8108 25.8346 41.6357 27.252 41.2854 28.403C40.9352 29.5558 40.472 30.4828 39.8977 31.1876C39.3234 31.8906 38.6662 32.3907 37.9244 32.6939C37.1825 32.9971 36.4218 33.1477 35.6422 33.1477H34.7573C34.7328 33.14 34.7102 33.1361 34.6857 33.1284C34.3355 33.0145 34.0041 32.8407 33.6934 32.5723C33.3827 32.3019 33.0965 31.935 32.8329 31.4696C32.5712 31.0042 32.3188 30.4191 32.0797 29.7161L21.7988 0.00193006H15.1841L4.51718 29.6679C4.22909 30.4191 3.94665 31.0332 3.66797 31.5082C3.3893 31.9813 3.09368 32.354 2.78299 32.6244C2.4723 32.8928 2.13714 33.0782 1.77938 33.1767C1.41974 33.2733 1.0262 33.3235 0.596893 33.3235H0V35.9961H12.7419V33.3235H10.6857C10.3995 33.3235 10.1246 33.2829 9.86098 33.1999C9.59925 33.1188 9.36388 33.001 9.15675 32.8445C8.94963 32.6881 8.78205 32.4892 8.65401 32.244C8.52597 31.9987 8.46195 31.7129 8.46195 31.3865C8.46195 30.9771 8.52973 30.5002 8.66531 29.9517C8.799 29.4052 8.9308 28.9263 9.05884 28.5169L10.4692 24.2008H22.375L24.096 29.2276C24.1921 29.5056 24.2881 29.832 24.3822 30.2086C24.4783 30.5851 24.5253 30.9771 24.5253 31.3865C24.5253 31.7303 24.4632 32.0238 24.3333 32.2691C24.2052 32.5143 24.0414 32.7152 23.8437 32.8697C23.6441 33.0261 23.4163 33.1381 23.1621 33.2134C22.9079 33.2868 22.6612 33.3235 22.4202 33.3235H20.5071V35.9961H36.6684C37.7342 35.9961 38.783 35.9768 39.813 35.8127C40.8881 35.6408 41.9087 35.3666 42.8727 34.992C43.8368 34.6154 44.7293 34.121 45.5503 33.5089C46.3713 32.8967 47.0755 32.1436 47.6648 31.2533C48.2542 30.3631 48.7174 29.328 49.0526 28.1519C49.3877 26.9739 49.5553 25.626 49.5553 24.1062V5.91503C49.5553 5.19665 49.6231 4.62504 49.7587 4.20019C49.8942 3.77535 50.0731 3.44899 50.2972 3.21918C50.5194 2.99131 50.7868 2.83875 51.0974 2.7673C51.2707 2.72675 54.6167 2.7113 57.6068 2.7055H62.3349H62.6474L52.1839 36H59.3278L61.7417 27.4683H74.4648L76.8561 36H84L72.5969 0.00965326V0ZM11.4973 21.1342L14.3895 12.6527C14.5815 12.0637 14.7849 11.4516 14.9995 10.8143C15.2142 10.177 15.4307 9.53975 15.6454 8.90248C15.86 8.26521 16.0634 7.64339 16.2536 7.03894C16.4456 6.4345 16.6113 5.87834 16.7563 5.37238C16.8844 5.96138 17.0312 6.57741 17.1969 7.2224C17.3645 7.86933 17.5396 8.51818 17.7241 9.1709C17.9068 9.82555 18.0913 10.4667 18.274 11.0962C18.4566 11.7258 18.6355 12.3264 18.8106 12.898L21.3921 21.1361H11.4954L11.4973 21.1342ZM63.5343 21.0859L64.7582 16.7641C64.7582 16.7641 65.3174 14.7789 65.372 14.5858C65.4907 14.1551 65.8842 12.7725 66.0217 12.2414C66.161 11.7065 66.5244 10.3682 66.6769 9.77535L68.1023 5.05375L69.5352 9.86997C69.7499 10.6791 69.876 11.1271 70.0662 11.7972C70.2583 12.4673 70.4014 12.9501 70.4974 13.2436L72.7438 21.0879H63.5362L63.5343 21.0859Z" fill="#FDF0E6"/>
</svg>
