<svg width="241" height="241" viewBox="0 0 241 241" fill="none" xmlns="http://www.w3.org/2000/svg">
<circle cx="120.699" cy="120.699" r="101" transform="rotate(12 120.699 120.699)" fill="#FCF6F1"/>
<path d="M73.1592 52.4623L75.651 50.7C80.4662 57.4116 86.4864 61.8991 88.3677 60.5343C88.8249 60.211 88.4324 59.2196 87.1078 57.1042C87.9503 57.2286 89.1518 57.1333 89.9145 56.9025C91.8836 60.4141 91.6655 61.8029 89.8824 63.064C86.0418 65.7802 78.998 60.2332 73.1592 52.4623ZM77.0254 51.237L77.5011 49.0487C78.6447 48.8229 80.2108 48.7098 81.099 48.8019L80.6355 51.153C79.7769 51.0058 78.2013 51.057 77.0254 51.237ZM81.4561 53.865L84.3359 52.6514C85.9218 58.0458 85.539 63.3236 83.526 67.7995C82.8046 67.5552 81.2044 67.2808 80.3324 67.2116C82.5127 63.1662 82.9417 58.4387 81.4561 53.865ZM71.584 64.9279L73.7791 63.9585C74.3862 65.6897 74.6046 67.6958 74.3826 69.2246C73.8067 69.1861 72.6347 69.2262 71.9996 69.2981C72.3025 67.8836 72.0885 66.3202 71.584 64.9279ZM65.3692 60.9896L83.0176 48.5082L84.602 50.7485L66.9536 63.2299L65.3692 60.9896ZM69.495 62.7015L76.3989 57.8189L77.7246 59.6935L70.8207 64.5761L69.495 62.7015ZM60.2058 59.1198L80.7118 44.6174L82.3123 46.8806L61.8064 61.383L60.2058 59.1198ZM68.7877 48.3177L76.5375 42.8369L77.9602 44.8486L70.2105 50.3295L68.7877 48.3177ZM63.9518 61.992L66.4893 60.1974L69.3187 64.198C71.2426 66.9184 73.6939 71.0149 73.696 74.7516C72.941 74.7025 71.3063 74.8641 70.5112 75.0491C70.5175 71.6152 68.3979 68.2786 66.7488 65.9469L63.9518 61.992ZM66.1082 47.7779L68.7828 45.8863L72.9703 51.8072L70.2956 53.6988L66.1082 47.7779ZM60.9834 52.9455L63.5438 51.1347L67.036 56.0726L64.4756 57.8834L60.9834 52.9455ZM77.0532 61.2657L79.3827 60.0983C80.6364 64.1501 79.7335 68.5955 76.6946 72.4937C76.136 72.2372 75.0538 71.8708 74.4293 71.7637C77.2937 68.2976 78.2523 64.4645 77.0532 61.2657ZM72.8559 62.3137L75.0505 60.7616L78.4457 65.5623L76.2511 67.1144L72.8559 62.3137Z" fill="#436335"/>
<path d="M101.198 34.8569L125.813 33.2408L126.031 36.5656L101.416 38.1817L101.198 34.8569ZM102.942 41.7575L124.986 40.3101L125.203 43.607L103.158 45.0544L102.942 41.7575ZM111.339 29.8979L114.887 29.6649L116.61 55.9004L113.061 56.1334L111.339 29.8979ZM111.611 43.0122L114.338 43.9556C112.058 48.5388 108.081 52.9248 103.986 55.5226C103.342 54.695 102.135 53.3993 101.305 52.7243C105.403 50.6032 109.554 46.739 111.611 43.0122ZM116.349 42.5327C118.875 45.9586 123.525 49.2451 127.921 50.8085C127.128 51.562 126.1 53.0044 125.574 53.965C121.177 51.9527 116.653 48.0126 113.739 43.7985L116.349 42.5327Z" fill="#436335"/>
<path d="M155.277 35.6917L157.895 38.0507C154.639 41.0515 150.581 43.4721 147.202 44.5415C146.906 43.7213 146.164 42.0651 145.667 41.2657C148.914 40.5066 152.516 38.3521 155.277 35.6917ZM154.31 38.7902L170.069 47.0836L168.557 49.9579L151.361 40.9082L154.31 38.7902ZM149.474 43.712L166.422 52.6314L164.961 55.4065L151.011 48.065L148.273 53.2685L145.275 51.6906L149.474 43.712ZM142.129 48.1684L164.925 60.1652L163.412 63.0394L140.617 51.0427L142.129 48.1684ZM159.053 43.1848L162.126 44.8018L152.098 63.8562L149.026 62.2393L159.053 43.1848Z" fill="#436335"/>
<path d="M183.977 82.4259L186.779 82.9751C187.159 85.0943 187.273 87.8607 187.107 89.5552L184.108 89.058C184.35 87.3831 184.333 84.5594 183.977 82.4259ZM178.147 82.3734L181.156 82.8322C182.174 86.4618 182.841 91.1465 182.954 94.0762L179.705 93.7604C179.755 90.8314 179.093 86.0459 178.147 82.3734ZM198.873 74.0589L200.075 77.1226C196.438 77.6889 192.461 77.74 188.414 76.4654C188.772 75.6985 189.081 74.2448 189.094 73.3901C192.546 74.595 196.148 74.5712 198.873 74.0589ZM196.858 75.8755L200.407 81.8443L197.928 83.3181L193.649 76.1217L196.858 75.8755ZM199.949 81.0742L200.278 81.6277L200.646 82.0278L200.718 84.3955C194.053 85.4585 187.618 83.2906 182.878 79.7563C183.352 79.0187 183.968 77.4798 184.12 76.64C188.432 80.1678 194.2 82.3089 199.443 81.3746L199.949 81.0742ZM194.785 76.717C192.431 80.5922 191.549 86.0677 192.643 91.0855C191.731 90.8129 190.171 90.6 189.221 90.6442C188.388 85.2434 189.707 79.5728 192.607 74.917L194.785 76.717ZM184.373 72.3529L186.167 74.0553C184.864 75.6442 183.065 77.4953 181.88 78.4605L179.88 76.6852C181.103 75.7298 182.979 73.8983 184.373 72.3529ZM177.056 74.292L178.658 76.1088C177.183 77.409 175.198 78.9472 173.821 79.8636L172.129 78.0031C173.52 77.1108 175.567 75.5681 177.056 74.292ZM175.733 71.2998L176.693 73.7911C174.451 74.896 171.936 75.8702 170.167 76.2376C170.131 75.5748 169.824 74.2914 169.65 73.6136C171.375 73.3373 173.698 72.3143 175.733 71.2998ZM181.935 67.3201C182.378 66.8609 183.348 65.6979 183.874 64.9942C184.281 65.404 184.981 65.5413 186.014 65.5791C186.988 65.6839 190.59 65.6601 193.666 64.9715L194.138 68.1764C190.852 68.5664 187.068 68.503 184.237 68.0689L184.188 68.0976C184.188 68.0976 182.416 67.0339 181.935 67.3201ZM181.935 67.3201L183.793 66.1175L185.188 66.8195L187.966 70.8356C187.192 71.0678 186.172 71.5439 185.628 71.8346C183.049 68.3186 182.423 67.6486 181.935 67.3201ZM176.451 70.8081C176.895 70.3489 177.961 69.1287 178.473 68.4009C179.013 68.9265 179.843 69.1171 181.192 69.3579C182.53 69.6371 187.46 70.0941 191.62 69.6404L191.545 72.9102C187.323 73.0419 182.566 72.5472 178.806 71.5908L178.733 71.6337C178.733 71.6337 176.932 70.5219 176.451 70.8081ZM176.451 70.8081L178.329 69.5288L179.757 70.178L183.933 75.4484C183.202 75.7527 182.196 76.2529 181.681 76.5917C177.825 71.9133 177.055 71.1659 176.451 70.8081ZM178.996 76.624L180.777 78.1391C179.734 79.5082 178.286 81.183 177.303 82.1587L175.369 80.6046C176.405 79.6628 177.901 77.9593 178.996 76.624Z" fill="#436335"/>
<path d="M166.642 176.921C165.013 178.691 162.705 181.489 160.502 184.144L158.413 181.918C160.371 179.401 162.466 176.788 164.149 174.706L166.642 176.921ZM171.378 184.443L164.086 189.6L162.307 187.086L169.6 181.928L171.378 184.443ZM171.919 190.542L169.405 192.32L156.503 174.078C155.614 172.82 155.318 171.966 155.736 171.053C156.115 170.134 157.056 169.331 158.542 168.28C159.095 168.918 160.185 169.828 161.022 170.333C160.183 170.892 159.383 171.458 159.109 171.652C158.834 171.846 158.807 172.002 159.034 172.322L171.919 190.542ZM155.538 201.373L152.347 202.292C151.924 200.19 151.6 197.985 151.47 196.396L154.371 195.648C154.555 197.267 155.003 199.694 155.538 201.373ZM165.374 192.634L163.923 195.237C162.126 194.588 160.038 193.526 158.893 192.587L160.423 189.756C161.522 190.728 163.613 191.89 165.374 192.634ZM152.321 194.835L149.737 196.661L141.152 184.522C140.263 183.265 139.974 182.372 140.529 181.362C141.061 180.369 142.218 179.482 143.932 178.27C144.518 178.953 145.653 179.83 146.497 180.297C145.397 180.972 144.254 181.78 143.927 182.045C143.585 182.288 143.558 182.444 143.784 182.764L152.321 194.835ZM161.413 198.041L158.784 199.9L153.045 191.785L155.673 189.925L161.413 198.041ZM160.459 189.079L150.949 195.805L149.268 193.427L158.778 186.701L160.459 189.079ZM161.739 188.173L159.202 189.968L154.19 182.881C152.347 180.275 150.127 176.701 149.881 173.685C150.645 173.796 152.331 173.804 153.12 173.658C153.401 176.237 155.191 178.915 156.727 181.087L161.739 188.173ZM153.291 181.562C151.6 183.341 149.12 186.09 146.8 188.725L145.015 186.832C146.999 184.4 149.182 181.862 150.884 179.904L153.291 181.562ZM155.396 185.217L155.456 187.679C153.467 188.502 150.661 189.287 149.003 189.465L148.882 186.772C150.487 186.666 153.335 185.989 155.396 185.217Z" fill="#436335"/>
<path d="M135.139 206.322L110.832 207.918L110.617 204.649L134.925 203.053L135.139 206.322ZM125.171 210.484L121.65 210.715L119.928 184.479L123.448 184.248L125.171 210.484ZM123.95 197.881L121.087 197.002C123.5 191.877 127.718 187.307 132.54 184.689C133.126 185.493 134.306 186.79 135.104 187.411C130.394 189.601 126.033 193.703 123.95 197.881ZM120.946 197.853C118.346 194.152 113.525 190.82 108.604 189.376C109.395 188.594 110.393 187.126 110.889 186.139C115.897 188.055 120.589 191.984 123.641 196.582L120.946 197.853ZM131.225 198.413L129.241 200.676C127.914 199.697 125.997 198.279 125.04 197.388L127.093 194.896C127.998 195.847 129.864 197.352 131.225 198.413ZM130.415 203.18L127.106 202.78C127.872 198.633 129.626 195.011 132.082 192.661C132.681 193.239 134.038 194.244 134.825 194.697C132.484 196.647 130.974 199.72 130.415 203.18ZM117.862 199.178L115.815 201.333C113.996 200.134 111.212 198.324 109.848 197.207L112.015 194.736C113.271 195.916 115.977 197.815 117.862 199.178ZM117.228 204.046L113.948 203.672C114.482 200.27 115.825 197.207 117.574 195.213C118.251 195.701 119.733 196.474 120.539 196.786C118.772 198.501 117.629 201.186 117.228 204.046Z" fill="#436335"/>
<path d="M82.1507 188.177L79.2764 186.664L83.8534 177.967C84.2837 177.15 84.2876 176.962 83.9407 176.779C83.8169 176.714 83.247 176.414 83.0983 176.336C82.7018 176.127 82.3028 176.645 80.7667 179.444C80.4576 178.648 79.5277 177.589 78.8887 177C81.0286 173.475 82.2335 172.748 84.0919 173.726C84.5131 173.948 85.4051 174.417 85.8016 174.626C88.0316 175.8 88.0838 176.903 86.7407 179.455L82.1507 188.177ZM82.4183 196.987L85.1307 191.834L78.5644 188.378L75.8521 193.532L82.4183 196.987ZM83.823 201.112L71.5082 194.631L77.0111 184.175L89.3259 190.656L83.823 201.112ZM86.4256 190.395L83.5265 188.869C86.7735 183.301 89.7101 179.404 95.9815 179.572C95.962 180.511 96.1929 182.056 96.5502 182.941C91.2217 182.604 89.0766 185.779 86.4256 190.395ZM94.5584 203.44L87.3975 199.671L88.8058 196.995L95.9667 200.764L94.5584 203.44ZM95.7956 193.333L91.1596 195.228L98.5663 181.154L101.416 182.654L95.7956 193.333ZM91.7386 194.488C91.333 193.516 90.2074 189.823 89.9505 188.928L93.062 187.465C93.2016 189.183 93.799 192.377 94.1681 193.9L91.7386 194.488ZM88.4134 200.206L87.7939 199.88L87.2214 199.705L86.2472 197.768C90.3093 193.958 95.9246 191.344 100.459 190.725C100.176 191.683 99.9217 193.669 99.9804 194.459C96.1673 194.731 91.577 196.84 88.7002 199.661L88.4134 200.206ZM91.0322 204.969L88.0471 205.17C87.6754 203.772 87.4119 201.988 87.4601 200.875L90.6734 200.541C90.5626 201.653 90.7361 203.548 91.0322 204.969Z" fill="#436335"/>
<path d="M56.4285 180.635L54.0824 178.935C54.7746 177.579 55.6938 175.892 56.3795 174.963L58.9084 176.587C58.1986 177.53 57.1591 179.288 56.4285 180.635ZM61.0496 161.34L59.5186 158.765L67.5333 154L69.0643 156.575L61.0496 161.34ZM55.4539 166.393L57.1628 165.377L53.9577 159.986L52.2489 161.002L55.4539 166.393ZM54.7804 170.246L48.4705 159.632L54.5597 156.012L60.8696 166.626L54.7804 170.246ZM62.6583 167.224L55.0034 154.348L65.9785 147.823L67.624 150.591L58.9594 155.742L63.3807 163.179L72.0693 158.014L73.6575 160.685L62.6583 167.224ZM65.6657 163.352L59.7135 153.339L61.8556 152.066L67.8078 162.078L65.6657 163.352ZM69.4542 161.067L63.502 151.054L65.8125 149.681L71.7647 159.693L69.4542 161.067ZM52.164 173.626L44.3803 160.533L46.8112 159.088L54.5949 172.181L52.164 173.626ZM60.6851 180.124L56.407 172.928L59.0063 171.382L63.2845 178.579L60.6851 180.124ZM62.7686 170.807C62.8012 169.875 63.4097 166.68 63.5906 165.888L66.9027 166.199C66.3113 167.561 65.4791 170.27 65.0992 171.604L62.7686 170.807ZM57.0365 173.987L56.6931 173.409L56.3107 172.985L56.3772 170.795C62.0337 169.68 68.2826 170.493 72.5436 172.455C71.9165 173.154 70.8874 174.71 70.6154 175.458C67.0218 173.523 61.7811 172.762 57.566 173.672L57.0365 173.987ZM67.1994 172.342L62.1318 171.544L75.4415 163.631L77.1155 166.447L67.1994 172.342Z" fill="#436335"/>
<path d="M71.6409 121.517L75.3334 104.145L81.0615 105.363C84.6297 106.121 87.1284 107.757 86.4398 110.996C86.1004 112.593 84.8876 114.028 83.2938 114.253L83.2739 114.347C85.0336 115.188 86.1343 116.82 85.6403 119.144C84.8968 122.642 81.6415 123.643 77.8385 122.835L71.6409 121.517ZM77.3059 111.95L79.3248 112.379C81.5315 112.848 82.6551 112.179 82.9545 110.771C83.2788 109.245 82.3941 108.443 80.3048 107.999L78.239 107.56L77.3059 111.95ZM75.6841 119.58L78.1021 120.094C80.4497 120.593 81.9205 120.022 82.2997 118.238C82.659 116.548 81.5695 115.555 79.175 115.046L76.757 114.532L75.6841 119.58ZM90.5079 125.871C88.09 125.357 87.6026 123.61 88.1216 121.168L91.3151 106.144L94.766 106.877L91.5425 122.043C91.3679 122.864 91.6651 123.197 91.9938 123.267C92.1112 123.292 92.2051 123.312 92.4498 123.315L92.3285 125.964C91.8995 126.02 91.3296 126.046 90.5079 125.871ZM100.401 127.974C96.7156 127.191 94.3905 124.046 95.3136 119.704C96.2217 115.431 99.7855 113.44 102.884 114.099C106.523 114.873 107.819 117.896 107.045 121.535C106.906 122.192 106.705 122.787 106.565 123.101L98.4425 121.375C98.2886 123.599 99.4626 125.002 101.411 125.416C102.468 125.641 103.476 125.512 104.564 125.129L105.26 127.51C103.779 128.128 102.021 128.318 100.401 127.974ZM98.8846 119.064L104.26 120.207C104.64 118.423 104.081 117.126 102.391 116.767C101.006 116.472 99.5755 117.199 98.8846 119.064ZM112.07 130.454C110.309 130.08 108.52 128.915 107.459 127.56L109.472 125.706C110.475 126.876 111.463 127.651 112.684 127.91C113.999 128.19 114.734 127.733 114.909 126.911C115.113 125.949 113.828 125.185 112.576 124.379C111.049 123.367 109.404 121.987 109.878 119.757C110.372 117.433 112.604 116.165 115.609 116.804C117.511 117.208 118.849 118.302 119.749 119.377L117.737 121.108C116.961 120.256 116.122 119.587 115.159 119.383C113.962 119.128 113.312 119.53 113.148 120.305C112.948 121.244 114.065 121.874 115.369 122.666C116.967 123.693 118.679 124.989 118.165 127.407C117.671 129.731 115.474 131.178 112.07 130.454ZM123.693 132.925C121.932 132.551 120.144 131.385 119.082 130.031L121.095 128.177C122.098 129.347 123.087 130.122 124.307 130.381C125.622 130.66 126.357 130.203 126.532 129.382C126.736 128.419 125.451 127.655 124.199 126.849C122.672 125.838 121.027 124.458 121.501 122.227C121.995 119.903 124.228 118.636 127.232 119.274C129.134 119.679 130.472 120.773 131.372 121.847L129.36 123.579C128.584 122.727 127.745 122.058 126.782 121.853C125.585 121.599 124.935 122 124.771 122.775C124.571 123.714 125.689 124.344 126.992 125.137C128.59 126.163 130.302 127.459 129.788 129.877C129.294 132.202 127.097 133.648 123.693 132.925ZM131.63 134.268L134.419 121.146L137.87 121.879L135.081 135.002L131.63 134.268ZM136.587 119.374C135.39 119.119 134.751 118.198 134.996 117.048C135.235 115.921 136.188 115.363 137.385 115.617C138.583 115.872 139.25 116.774 139.01 117.901C138.766 119.051 137.784 119.628 136.587 119.374ZM138.76 135.784L141.549 122.661L144.343 123.255L144.255 125.052L144.326 125.067C145.692 124.18 147.253 123.53 149.037 123.909C151.854 124.508 152.679 126.744 151.981 130.031L150.239 138.224L146.788 137.49L148.435 129.743C148.874 127.678 148.432 126.872 147.164 126.603C146.084 126.373 145.294 126.745 144.132 127.479L142.211 136.517L138.76 135.784ZM157.187 145.663C154.112 145.009 151.942 143.444 152.431 141.143C152.666 140.04 153.528 139.217 154.888 138.819L154.913 138.702C154.327 138.111 153.96 137.297 154.19 136.217C154.399 135.231 155.246 134.479 156.188 134.09L156.208 133.996C155.432 133.145 154.828 131.716 155.157 130.166C155.816 127.068 158.7 125.963 161.47 126.552C162.222 126.712 162.901 126.979 163.396 127.305L168.138 128.313L167.599 130.848L165.345 130.369C165.603 130.89 165.706 131.673 165.537 132.471C164.903 135.452 162.335 136.452 159.494 135.848C158.978 135.738 158.411 135.52 157.869 135.184C157.447 135.438 157.176 135.674 157.061 136.214C156.916 136.895 157.372 137.409 158.897 137.733L161.151 138.212C164.32 138.886 165.853 140.218 165.359 142.542C164.795 145.195 161.577 146.596 157.187 145.663ZM159.944 133.735C161.094 133.98 162.199 133.282 162.528 131.733C162.858 130.184 162.145 129.149 160.971 128.899C159.821 128.655 158.726 129.306 158.397 130.855C158.067 132.404 158.793 133.491 159.944 133.735ZM158.191 143.595C160.163 144.014 161.686 143.43 161.901 142.42C162.1 141.481 161.38 141.058 159.972 140.759L158.376 140.42C157.577 140.25 157.047 140.088 156.608 139.847C155.893 140.211 155.525 140.672 155.41 141.212C155.175 142.316 156.266 143.185 158.191 143.595ZM170.425 136.331L171.75 127.559L172.35 124.276L175.801 125.01L175.013 128.253L172.679 136.81L170.425 136.331ZM170.201 142.81C168.98 142.551 168.269 141.394 168.544 140.103C168.818 138.812 169.934 138.067 171.154 138.327C172.398 138.591 173.114 139.725 172.84 141.016C172.566 142.307 171.445 143.075 170.201 142.81Z" fill="#436335"/>
<mask id="path-11-inside-1_216_521" fill="white">
<path d="M38.818 148.022C34.6095 135.07 33.5188 121.306 35.6348 107.853C37.7508 94.3991 43.0136 81.6352 50.9949 70.5999L52.0356 71.3525C44.1728 82.224 38.9881 94.7984 36.9035 108.052C34.8189 121.306 35.8934 134.865 40.0394 147.625L38.818 148.022Z"/>
</mask>
<path d="M38.818 148.022C34.6095 135.07 33.5188 121.306 35.6348 107.853C37.7508 94.3991 43.0136 81.6352 50.9949 70.5999L52.0356 71.3525C44.1728 82.224 38.9881 94.7984 36.9035 108.052C34.8189 121.306 35.8934 134.865 40.0394 147.625L38.818 148.022Z" stroke="#436335" stroke-width="2" mask="url(#path-11-inside-1_216_521)"/>
<mask id="path-12-inside-2_216_521" fill="white">
<path d="M185.366 179.172C194.479 169.051 201.073 156.921 204.612 143.77C208.152 130.619 208.535 116.818 205.732 103.49L204.476 103.755C207.237 116.884 206.859 130.48 203.372 143.436C199.886 156.392 193.389 168.342 184.412 178.313L185.366 179.172Z"/>
</mask>
<path d="M185.366 179.172C194.479 169.051 201.073 156.921 204.612 143.77C208.152 130.619 208.535 116.818 205.732 103.49L204.476 103.755C207.237 116.884 206.859 130.48 203.372 143.436C199.886 156.392 193.389 168.342 184.412 178.313L185.366 179.172Z" stroke="#436335" stroke-width="2" mask="url(#path-12-inside-2_216_521)"/>
</svg>
