<?xml version="1.0" encoding="utf-8"?>
<!-- Generator: Adobe Illustrator 23.1.0, SVG Export Plug-In . SVG Version: 6.00 Build 0)  -->
<svg version="1.1" id="圖層_1" xmlns="http://www.w3.org/2000/svg" xmlns:xlink="http://www.w3.org/1999/xlink" x="0px" y="0px"
	 viewBox="0 0 206 206" style="enable-background:new 0 0 206 206;" xml:space="preserve">
<style type="text/css">
	.st0{fill:#FCF6F1;}
	.st1{fill:#436335;}
	.st2{fill:#FFFFFF;filter:url(#Adobe_OpacityMaskFilter);}
	.st3{mask:url(#path-10-inside-1_612_1048_3_);fill:#436335;}
	.st4{fill:#FFFFFF;filter:url(#Adobe_OpacityMaskFilter_1_);}
	.st5{mask:url(#path-11-inside-2_612_1048_3_);fill:#436335;}
</style>
<path class="st0" d="M201.5,123.7c-11.6,54.6-65.2,89.4-119.8,77.8C27.2,189.9-7.7,136.3,3.9,81.7C15.5,27.2,69.2-7.6,123.7,4
	C178.3,15.6,213.1,69.2,201.5,123.7z"/>
<path class="st1" d="M55.2,34.5l2.5-1.8c4.8,6.7,10.8,11.2,12.7,9.8c0.5-0.3,0.1-1.3-1.3-3.4c0.8,0.1,2,0,2.8-0.2
	c2,3.5,1.8,4.9,0,6.2C68.1,47.8,61,42.3,55.2,34.5z M59.1,33.3l0.5-2.2c1.1-0.2,2.7-0.3,3.6-0.2l-0.5,2.4
	C61.8,33.1,60.2,33.1,59.1,33.3z M63.5,35.9l2.9-1.2c1.6,5.4,1.2,10.7-0.8,15.1c-0.7-0.2-2.3-0.5-3.2-0.6
	C64.5,45.2,65,40.5,63.5,35.9z M53.6,47l2.2-1c0.6,1.7,0.8,3.7,0.6,5.3c-0.6,0-1.7,0-2.4,0.1C54.3,49.9,54.1,48.4,53.6,47z M47.4,43
	L65,30.6l1.6,2.2L49,45.3L47.4,43z M51.5,44.8l6.9-4.9l1.3,1.9l-6.9,4.9L51.5,44.8z M42.2,41.2l20.5-14.5l1.6,2.3L43.8,43.4
	L42.2,41.2z M50.8,30.4l7.7-5.5l1.4,2l-7.7,5.5L50.8,30.4z M46,44l2.5-1.8l2.8,4c1.9,2.7,4.4,6.8,4.4,10.6c-0.8,0-2.4,0.1-3.2,0.3
	c0-3.4-2.1-6.8-3.8-9.1L46,44z M48.1,29.8l2.7-1.9l4.2,5.9l-2.7,1.9L48.1,29.8z M43,35l2.6-1.8l3.5,4.9l-2.6,1.8L43,35z M59.1,43.3
	l2.3-1.2c1.3,4.1,0.4,8.5-2.7,12.4c-0.6-0.3-1.6-0.6-2.3-0.7C59.3,50.3,60.3,46.5,59.1,43.3z M54.9,44.4l2.2-1.6l3.4,4.8l-2.2,1.6
	L54.9,44.4z"/>
<path class="st1" d="M83.2,16.9l24.6-1.6l0.2,3.3l-24.6,1.6L83.2,16.9z M85,23.8l22-1.4l0.2,3.3l-22,1.4L85,23.8z M93.4,11.9
	l3.5-0.2L98.6,38l-3.5,0.2L93.4,11.9z M93.6,25.1l2.7,0.9c-2.3,4.6-6.3,9-10.4,11.6c-0.6-0.8-1.9-2.1-2.7-2.8
	C87.4,32.7,91.6,28.8,93.6,25.1z M98.4,24.6c2.5,3.4,7.2,6.7,11.6,8.3c-0.8,0.8-1.8,2.2-2.3,3.2c-4.4-2-8.9-6-11.8-10.2L98.4,24.6z"
	/>
<path class="st1" d="M137.3,17.7l2.6,2.4c-3.3,3-7.3,5.4-10.7,6.5c-0.3-0.8-1-2.5-1.5-3.3C130.9,22.6,134.5,20.4,137.3,17.7z
	 M136.3,20.8l15.8,8.3l-1.5,2.9l-17.2-9L136.3,20.8z M131.5,25.8l16.9,8.9l-1.5,2.8l-14-7.3l-2.7,5.2l-3-1.6L131.5,25.8z
	 M124.2,30.2l22.8,12l-1.5,2.9l-22.8-12L124.2,30.2z M141.1,25.2l3.1,1.6l-10,19.1l-3.1-1.6L141.1,25.2z"/>
<path class="st1" d="M166,64.5l2.8,0.5c0.4,2.1,0.5,4.9,0.3,6.6l-3-0.5C166.4,69.4,166.4,66.6,166,64.5z M160.2,64.4l3,0.5
	c1,3.6,1.7,8.3,1.8,11.2l-3.2-0.3C161.8,72.9,161.1,68.1,160.2,64.4z M180.9,56.1l1.2,3.1c-3.6,0.6-7.6,0.6-11.7-0.7
	c0.4-0.8,0.7-2.2,0.7-3.1C174.6,56.6,178.2,56.6,180.9,56.1z M178.9,57.9l3.5,6l-2.5,1.5l-4.3-7.2L178.9,57.9z M182,63.1l0.3,0.6
	l0.4,0.4l0.1,2.4c-6.7,1.1-13.1-1.1-17.8-4.6c0.5-0.7,1.1-2.3,1.2-3.1c4.3,3.5,10.1,5.7,15.3,4.7L182,63.1z M176.8,58.8
	c-2.4,3.9-3.2,9.4-2.1,14.4c-0.9-0.3-2.5-0.5-3.4-0.4c-0.8-5.4,0.5-11.1,3.4-15.7L176.8,58.8z M166.4,54.4l1.8,1.7
	c-1.3,1.6-3.1,3.4-4.3,4.4l-2-1.8C163.1,57.8,165,55.9,166.4,54.4z M159.1,56.3l1.6,1.8c-1.5,1.3-3.5,2.8-4.8,3.8l-1.7-1.9
	C155.5,59.2,157.6,57.6,159.1,56.3z M157.8,53.3l1,2.5c-2.2,1.1-4.8,2.1-6.5,2.4c0-0.7-0.3-1.9-0.5-2.6
	C153.4,55.4,155.7,54.4,157.8,53.3z M164,49.4c0.4-0.5,1.4-1.6,1.9-2.3c0.4,0.4,1.1,0.5,2.1,0.6c1,0.1,4.6,0.1,7.7-0.6l0.5,3.2
	c-3.3,0.4-7.1,0.3-9.9-0.1l0,0C166.2,50.1,164.4,49.1,164,49.4z M164,49.4l1.9-1.2l1.4,0.7l2.8,4c-0.8,0.2-1.8,0.7-2.3,1
	C165.1,50.4,164.5,49.7,164,49.4z M158.5,52.9c0.4-0.5,1.5-1.7,2-2.4c0.5,0.5,1.4,0.7,2.7,1c1.3,0.3,6.3,0.7,10.4,0.3l-0.1,3.3
	c-4.2,0.1-9-0.4-12.7-1.3l-0.1,0C160.8,53.7,159,52.6,158.5,52.9z M158.5,52.9l1.9-1.3l1.4,0.6l4.2,5.3c-0.7,0.3-1.7,0.8-2.3,1.1
	C159.9,54,159.1,53.2,158.5,52.9z M161,58.7l1.8,1.5c-1,1.4-2.5,3-3.5,4l-1.9-1.6C158.4,61.7,159.9,60,161,58.7z"/>
<path class="st1" d="M148.7,159c-1.6,1.8-3.9,4.6-6.1,7.2l-2.1-2.2c2-2.5,4.1-5.1,5.7-7.2L148.7,159z M153.4,166.5l-7.3,5.2
	l-1.8-2.5l7.3-5.2L153.4,166.5z M153.9,172.6l-2.5,1.8l-12.9-18.2c-0.9-1.3-1.2-2.1-0.8-3c0.4-0.9,1.3-1.7,2.8-2.8
	c0.6,0.6,1.6,1.5,2.5,2.1c-0.8,0.6-1.6,1.1-1.9,1.3c-0.3,0.2-0.3,0.4-0.1,0.7L153.9,172.6z M137.6,183.4l-3.2,0.9
	c-0.4-2.1-0.7-4.3-0.9-5.9l2.9-0.7C136.6,179.3,137,181.7,137.6,183.4z M147.4,174.7l-1.5,2.6c-1.8-0.7-3.9-1.7-5-2.7l1.5-2.8
	C143.6,172.8,145.6,173.9,147.4,174.7z M134.3,176.9l-2.6,1.8l-8.6-12.1c-0.9-1.3-1.2-2.2-0.6-3.2c0.5-1,1.7-1.9,3.4-3.1
	c0.6,0.7,1.7,1.6,2.6,2c-1.1,0.7-2.2,1.5-2.6,1.7c-0.3,0.2-0.4,0.4-0.1,0.7L134.3,176.9z M143.4,180.1l-2.6,1.9l-5.7-8.1l2.6-1.9
	L143.4,180.1z M142.5,171.1l-9.5,6.7l-1.7-2.4l9.5-6.7L142.5,171.1z M143.8,170.2l-2.5,1.8l-5-7.1c-1.8-2.6-4.1-6.2-4.3-9.2
	c0.8,0.1,2.4,0.1,3.2,0c0.3,2.6,2.1,5.3,3.6,7.4L143.8,170.2z M135.3,163.6c-1.7,1.8-4.2,4.5-6.5,7.2l-1.8-1.9c2-2.4,4.2-5,5.9-6.9
	L135.3,163.6z M137.4,167.3l0.1,2.5c-2,0.8-4.8,1.6-6.5,1.8l-0.1-2.7C132.5,168.7,135.4,168,137.4,167.3z"/>
<path class="st1" d="M117.2,188.4L92.9,190l-0.2-3.3l24.3-1.6L117.2,188.4z M107.2,192.5l-3.5,0.2l-1.7-26.2l3.5-0.2L107.2,192.5z
	 M106,179.9l-2.9-0.9c2.4-5.1,6.6-9.7,11.5-12.3c0.6,0.8,1.8,2.1,2.6,2.7C112.4,171.6,108.1,175.8,106,179.9z M103,179.9
	c-2.6-3.7-7.4-7-12.3-8.5c0.8-0.8,1.8-2.2,2.3-3.2c5,1.9,9.7,5.8,12.8,10.4L103,179.9z M113.3,180.5l-2,2.3c-1.3-1-3.2-2.4-4.2-3.3
	l2.1-2.5C110,177.9,111.9,179.4,113.3,180.5z M112.4,185.2l-3.3-0.4c0.8-4.1,2.5-7.8,5-10.1c0.6,0.6,2,1.6,2.7,2
	C114.5,178.7,113,181.8,112.4,185.2z M99.9,181.2l-2,2.2c-1.8-1.2-4.6-3-6-4.1l2.2-2.5C95.3,178,98,179.9,99.9,181.2z M99.3,186.1
	l-3.3-0.4c0.5-3.4,1.9-6.5,3.6-8.5c0.7,0.5,2.2,1.3,3,1.6C100.8,180.6,99.7,183.2,99.3,186.1z"/>
<path class="st1" d="M64.2,170.2l-2.9-1.5l4.6-8.7c0.4-0.8,0.4-1,0.1-1.2c-0.1-0.1-0.7-0.4-0.8-0.4c-0.4-0.2-0.8,0.3-2.3,3.1
	c-0.3-0.8-1.2-1.9-1.9-2.4c2.1-3.5,3.3-4.3,5.2-3.3c0.4,0.2,1.3,0.7,1.7,0.9c2.2,1.2,2.3,2.3,0.9,4.8L64.2,170.2z M64.4,179l2.7-5.2
	l-6.6-3.5l-2.7,5.2L64.4,179z M65.9,183.2l-12.3-6.5l5.5-10.5l12.3,6.5L65.9,183.2z M68.5,172.4l-2.9-1.5c3.2-5.6,6.2-9.5,12.5-9.3
	c0,0.9,0.2,2.5,0.6,3.4C73.2,164.7,71.1,167.8,68.5,172.4z M76.6,185.5l-7.2-3.8l1.4-2.7l7.2,3.8L76.6,185.5z M77.8,175.4l-4.6,1.9
	l7.4-14.1l2.8,1.5L77.8,175.4z M73.8,176.5c-0.4-1-1.5-4.7-1.8-5.6l3.1-1.5c0.1,1.7,0.7,4.9,1.1,6.4L73.8,176.5z M70.4,182.3
	l-0.6-0.3l-0.6-0.2l-1-1.9c4.1-3.8,9.7-6.4,14.2-7c-0.3,1-0.5,2.9-0.5,3.7c-3.8,0.3-8.4,2.4-11.3,5.2L70.4,182.3z M73.1,187l-3,0.2
	c-0.4-1.4-0.6-3.2-0.6-4.3l3.2-0.3C72.6,183.7,72.8,185.6,73.1,187z"/>
<path class="st1" d="M38.5,162.7l-2.3-1.7c0.7-1.4,1.6-3,2.3-4l2.5,1.6C40.2,159.6,39.2,161.3,38.5,162.7z M43.1,143.4l-1.5-2.6
	l8-4.8l1.5,2.6L43.1,143.4z M37.5,148.4l1.7-1L36,142l-1.7,1L37.5,148.4z M36.8,152.3l-6.3-10.6l6.1-3.6l6.3,10.6L36.8,152.3z
	 M44.7,149.3L37,136.4l11-6.5l1.6,2.8l-8.7,5.2l4.4,7.4l8.7-5.2l1.6,2.7L44.7,149.3z M47.7,145.4l-6-10l2.1-1.3l6,10L47.7,145.4z
	 M51.5,143.1l-6-10l2.3-1.4l6,10L51.5,143.1z M34.2,155.7l-7.8-13.1l2.4-1.4l7.8,13.1L34.2,155.7z M42.7,162.2l-4.3-7.2l2.6-1.5
	l4.3,7.2L42.7,162.2z M44.8,152.9c0-0.9,0.6-4.1,0.8-4.9l3.3,0.3c-0.6,1.4-1.4,4.1-1.8,5.4L44.8,152.9z M39.1,156l-0.3-0.6l-0.4-0.4
	l0.1-2.2c5.7-1.1,11.9-0.3,16.2,1.7c-0.6,0.7-1.7,2.3-1.9,3c-3.6-1.9-8.8-2.7-13-1.8L39.1,156z M49.2,154.4l-5.1-0.8l13.3-7.9
	l1.7,2.8L49.2,154.4z"/>
<defs>
	<filter id="Adobe_OpacityMaskFilter" filterUnits="userSpaceOnUse" x="15.6" y="51.3" width="19.8" height="80.1">
		<feColorMatrix  type="matrix" values="1 0 0 0 0  0 1 0 0 0  0 0 1 0 0  0 0 0 1 0"/>
	</filter>
</defs>
<mask maskUnits="userSpaceOnUse" x="15.6" y="51.3" width="19.8" height="80.1" id="path-10-inside-1_612_1048_3_">
	<path class="st2" d="M20.8,130.1c-4.2-13-5.3-26.7-3.2-40.2C19.8,76.4,25,63.7,33,52.6l1,0.8c-7.9,10.9-13,23.4-15.1,36.7
		c-2.1,13.3-1,26.8,3.1,39.6L20.8,130.1z"/>
</mask>
<path class="st3" d="M20.2,131.3l-0.3-1c-4.2-13-5.4-27.1-3.2-40.6c2.1-13.5,7.5-26.6,15.5-37.7l0.6-0.8l2.7,1.9L34.9,54
	c-7.7,10.7-12.9,23.2-15,36.3c-2.1,13-1,26.6,3.1,39.1l0.3,1L20.2,131.3z"/>
<defs>
	<filter id="Adobe_OpacityMaskFilter_1_" filterUnits="userSpaceOnUse" x="165" y="84.4" width="25.6" height="78.3">
		<feColorMatrix  type="matrix" values="1 0 0 0 0  0 1 0 0 0  0 0 1 0 0  0 0 0 1 0"/>
	</filter>
</defs>
<mask maskUnits="userSpaceOnUse" x="165" y="84.4" width="25.6" height="78.3" id="path-11-inside-2_612_1048_3_">
	<path class="st4" d="M167.4,161.2c9.1-10.1,15.7-22.3,19.2-35.4c3.5-13.2,3.9-27,1.1-40.3l-1.3,0.3c2.8,13.1,2.4,26.7-1.1,39.7
		c-3.5,13-10,24.9-19,34.9L167.4,161.2z"/>
</mask>
<path class="st5" d="M167.5,162.6l-2.4-2.2l0.7-0.7c8.8-9.8,15.3-21.7,18.7-34.5c3.4-12.7,3.8-26.3,1.1-39.2l-0.2-1l3.2-0.7l0.2,1
	c2.8,13.4,2.4,27.5-1.1,40.7c-3.6,13.2-10.3,25.6-19.5,35.8L167.5,162.6z"/>
</svg>
