<?xml version="1.0" encoding="utf-8"?>
<!-- Generator: Adobe Illustrator 23.1.0, SVG Export Plug-In . SVG Version: 6.00 Build 0)  -->
<svg version="1.1" id="圖層_1" xmlns="http://www.w3.org/2000/svg" xmlns:xlink="http://www.w3.org/1999/xlink" x="0px" y="0px"
	 viewBox="0 0 202 202" style="enable-background:new 0 0 202 202;" xml:space="preserve">
<style type="text/css">
	.st0{fill:#FCF6F1;}
	.st1{fill:#436335;}
	.st2{fill:#FFFFFF;filter:url(#Adobe_OpacityMaskFilter);}
	.st3{mask:url(#path-11-inside-1_200_17220_1_);fill:none;stroke:#436335;stroke-width:2;}
	.st4{fill:#FFFFFF;filter:url(#Adobe_OpacityMaskFilter_1_);}
	.st5{mask:url(#path-12-inside-2_200_17220_1_);fill:none;stroke:#436335;stroke-width:2;}
</style>
<circle class="st0" cx="101.2" cy="101.2" r="101"/>
<path class="st1" d="M53.7,33l2.5-1.8C61,37.9,67,42.4,68.9,41.1c0.5-0.3,0.1-1.3-1.3-3.4c0.8,0.1,2,0,2.8-0.2c2,3.5,1.8,4.9,0,6.2
	C66.6,46.3,59.5,40.8,53.7,33z M57.5,31.8l0.5-2.2c1.1-0.2,2.7-0.3,3.6-0.2l-0.5,2.4C60.3,31.5,58.7,31.6,57.5,31.8z M62,34.4
	l2.9-1.2c1.6,5.4,1.2,10.7-0.8,15.1c-0.7-0.2-2.3-0.5-3.2-0.6C63,43.7,63.5,39,62,34.4z M52.1,45.4l2.2-1c0.6,1.7,0.8,3.7,0.6,5.3
	c-0.6,0-1.7,0-2.4,0.1C52.8,48.4,52.6,46.8,52.1,45.4z M45.9,41.5L63.5,29l1.6,2.2L47.5,43.8L45.9,41.5z M50,43.2l6.9-4.9l1.3,1.9
	l-6.9,4.9L50,43.2z M40.7,39.6l20.5-14.5l1.6,2.3L42.3,41.9L40.7,39.6z M49.3,28.8l7.7-5.5l1.4,2l-7.7,5.5L49.3,28.8z M44.5,42.5
	l2.5-1.8l2.8,4c1.9,2.7,4.4,6.8,4.4,10.6c-0.8,0-2.4,0.1-3.2,0.3c0-3.4-2.1-6.8-3.8-9.1L44.5,42.5z M46.6,28.3l2.7-1.9l4.2,5.9
	l-2.7,1.9L46.6,28.3z M41.5,33.5l2.6-1.8l3.5,4.9L45,38.4L41.5,33.5z M57.6,41.8l2.3-1.2c1.3,4.1,0.4,8.5-2.7,12.4
	c-0.6-0.3-1.6-0.6-2.3-0.7C57.8,48.8,58.8,45,57.6,41.8z M53.4,42.8l2.2-1.6l3.4,4.8l-2.2,1.6L53.4,42.8z"/>
<path class="st1" d="M81.7,15.4l24.6-1.6l0.2,3.3l-24.6,1.6L81.7,15.4z M83.5,22.3l22-1.4l0.2,3.3l-22,1.4L83.5,22.3z M91.9,10.4
	l3.5-0.2l1.7,26.2l-3.5,0.2L91.9,10.4z M92.1,23.5l2.7,0.9c-2.3,4.6-6.3,9-10.4,11.6c-0.6-0.8-1.9-2.1-2.7-2.8
	C85.9,31.1,90.1,27.3,92.1,23.5z M96.9,23.1c2.5,3.4,7.2,6.7,11.6,8.3c-0.8,0.8-1.8,2.2-2.3,3.2c-4.4-2-8.9-6-11.8-10.2L96.9,23.1z"
	/>
<path class="st1" d="M135.8,16.2l2.6,2.4c-3.3,3-7.3,5.4-10.7,6.5c-0.3-0.8-1-2.5-1.5-3.3C129.4,21,133,18.9,135.8,16.2z
	 M134.8,19.3l15.8,8.3l-1.5,2.9l-17.2-9L134.8,19.3z M130,24.2l16.9,8.9l-1.5,2.8l-13.9-7.3l-2.7,5.2l-3-1.6L130,24.2z M122.7,28.7
	l22.8,12l-1.5,2.9l-22.8-12L122.7,28.7z M139.6,23.7l3.1,1.6l-10,19.1l-3.1-1.6L139.6,23.7z"/>
<path class="st1" d="M164.5,62.9l2.8,0.5c0.4,2.1,0.5,4.9,0.3,6.6l-3-0.5C164.9,67.9,164.9,65.1,164.5,62.9z M158.7,62.9l3,0.5
	c1,3.6,1.7,8.3,1.8,11.2l-3.2-0.3C160.3,71.4,159.6,66.6,158.7,62.9z M179.4,54.6l1.2,3.1c-3.6,0.6-7.6,0.6-11.7-0.7
	c0.4-0.8,0.7-2.2,0.7-3.1C173.1,55.1,176.7,55.1,179.4,54.6z M177.4,56.4l3.5,6l-2.5,1.5l-4.3-7.2L177.4,56.4z M180.5,61.6l0.3,0.6
	l0.4,0.4l0.1,2.4c-6.7,1.1-13.1-1.1-17.8-4.6c0.5-0.7,1.1-2.3,1.2-3.1c4.3,3.5,10.1,5.7,15.3,4.7L180.5,61.6z M175.3,57.2
	c-2.4,3.9-3.2,9.4-2.1,14.4c-0.9-0.3-2.5-0.5-3.4-0.4c-0.8-5.4,0.5-11.1,3.4-15.7L175.3,57.2z M164.9,52.9l1.8,1.7
	c-1.3,1.6-3.1,3.4-4.3,4.4l-2-1.8C161.6,56.3,163.5,54.4,164.9,52.9z M157.6,54.8l1.6,1.8c-1.5,1.3-3.5,2.8-4.8,3.8l-1.7-1.9
	C154,57.6,156.1,56.1,157.6,54.8z M156.3,51.8l1,2.5c-2.2,1.1-4.8,2.1-6.5,2.4c0-0.7-0.3-1.9-0.5-2.6
	C151.9,53.9,154.2,52.8,156.3,51.8z M162.5,47.8c0.4-0.5,1.4-1.6,1.9-2.3c0.4,0.4,1.1,0.5,2.1,0.6c1,0.1,4.6,0.1,7.7-0.6l0.5,3.2
	c-3.3,0.4-7.1,0.3-9.9-0.1l0,0C164.7,48.6,162.9,47.6,162.5,47.8z M162.5,47.8l1.9-1.2l1.4,0.7l2.8,4c-0.8,0.2-1.8,0.7-2.3,1
	C163.6,48.8,162.9,48.2,162.5,47.8z M157,51.3c0.4-0.5,1.5-1.7,2-2.4c0.5,0.5,1.4,0.7,2.7,1c1.3,0.3,6.3,0.7,10.4,0.3l-0.1,3.3
	c-4.2,0.1-9-0.4-12.7-1.3l-0.1,0C159.3,52.2,157.5,51,157,51.3z M157,51.3l1.9-1.3l1.4,0.6l4.2,5.3c-0.7,0.3-1.7,0.8-2.3,1.1
	C158.3,52.4,157.6,51.7,157,51.3z M159.5,57.1l1.8,1.5c-1,1.4-2.5,3-3.5,4l-1.9-1.6C156.9,60.2,158.4,58.5,159.5,57.1z"/>
<path class="st1" d="M147.2,157.4c-1.6,1.8-3.9,4.6-6.1,7.2l-2.1-2.2c2-2.5,4.1-5.1,5.7-7.2L147.2,157.4z M151.9,165l-7.3,5.2
	l-1.8-2.5l7.3-5.2L151.9,165z M152.4,171.1l-2.5,1.8L137,154.6c-0.9-1.3-1.2-2.1-0.8-3c0.4-0.9,1.3-1.7,2.8-2.8
	c0.6,0.6,1.6,1.5,2.5,2.1c-0.8,0.6-1.6,1.1-1.9,1.3s-0.3,0.4-0.1,0.7L152.4,171.1z M136.1,181.9l-3.2,0.9c-0.4-2.1-0.7-4.3-0.9-5.9
	l2.9-0.7C135.1,177.8,135.5,180.2,136.1,181.9z M145.9,173.2l-1.5,2.6c-1.8-0.6-3.9-1.7-5-2.6l1.5-2.8
	C142,171.2,144.1,172.4,145.9,173.2z M132.8,175.4l-2.6,1.8l-8.6-12.1c-0.9-1.3-1.2-2.2-0.6-3.2c0.5-1,1.7-1.9,3.4-3.1
	c0.6,0.7,1.7,1.6,2.6,2c-1.1,0.7-2.2,1.5-2.6,1.7c-0.3,0.2-0.4,0.4-0.1,0.7L132.8,175.4z M141.9,178.6l-2.6,1.9l-5.7-8.1l2.6-1.9
	L141.9,178.6z M141,169.6l-9.5,6.7l-1.7-2.4l9.5-6.7L141,169.6z M142.3,168.7l-2.5,1.8l-5-7.1c-1.8-2.6-4.1-6.2-4.3-9.2
	c0.8,0.1,2.5,0.1,3.2,0c0.3,2.6,2.1,5.3,3.6,7.4L142.3,168.7z M133.8,162.1c-1.7,1.8-4.2,4.5-6.5,7.2l-1.8-1.9c2-2.4,4.2-5,5.9-6.9
	L133.8,162.1z M135.9,165.7l0.1,2.5c-2,0.8-4.8,1.6-6.5,1.8l-0.1-2.7C131,167.2,133.9,166.5,135.9,165.7z"/>
<path class="st1" d="M115.7,186.8l-24.3,1.6l-0.2-3.3l24.3-1.6L115.7,186.8z M105.7,191l-3.5,0.2l-1.7-26.2l3.5-0.2L105.7,191z
	 M104.5,178.4l-2.9-0.9c2.4-5.1,6.6-9.7,11.5-12.3c0.6,0.8,1.8,2.1,2.6,2.7C110.9,170.1,106.6,174.2,104.5,178.4z M101.5,178.4
	c-2.6-3.7-7.4-7-12.3-8.5c0.8-0.8,1.8-2.2,2.3-3.2c5,1.9,9.7,5.8,12.8,10.4L101.5,178.4z M111.7,178.9l-2,2.3
	c-1.3-1-3.2-2.4-4.2-3.3l2.1-2.5C108.5,176.4,110.4,177.9,111.7,178.9z M110.9,183.7l-3.3-0.4c0.8-4.1,2.5-7.8,5-10.1
	c0.6,0.6,2,1.6,2.7,2C113,177.2,111.5,180.2,110.9,183.7z M98.4,179.7l-2,2.2c-1.8-1.2-4.6-3-6-4.1l2.2-2.5
	C93.8,176.4,96.5,178.3,98.4,179.7z M97.7,184.6l-3.3-0.4c0.5-3.4,1.9-6.5,3.6-8.5c0.7,0.5,2.2,1.3,3,1.6
	C99.3,179,98.2,181.7,97.7,184.6z"/>
<path class="st1" d="M62.7,168.7l-2.9-1.5l4.6-8.7c0.4-0.8,0.4-1,0.1-1.2c-0.1-0.1-0.7-0.4-0.8-0.4c-0.4-0.2-0.8,0.3-2.3,3.1
	c-0.3-0.8-1.2-1.9-1.9-2.4c2.1-3.5,3.3-4.3,5.2-3.3c0.4,0.2,1.3,0.7,1.7,0.9c2.2,1.2,2.3,2.3,0.9,4.8L62.7,168.7z M62.9,177.5
	l2.7-5.2l-6.6-3.5l-2.7,5.2L62.9,177.5z M64.3,181.6L52,175.2l5.5-10.5l12.3,6.5L64.3,181.6z M66.9,170.9l-2.9-1.5
	c3.2-5.6,6.2-9.5,12.5-9.3c0,0.9,0.2,2.5,0.6,3.4C71.7,163.1,69.6,166.3,66.9,170.9z M75.1,184l-7.2-3.8l1.4-2.7l7.2,3.8L75.1,184z
	 M76.3,173.9l-4.6,1.9l7.4-14.1l2.8,1.5L76.3,173.9z M72.3,175c-0.4-1-1.5-4.7-1.8-5.6l3.1-1.5c0.1,1.7,0.7,4.9,1.1,6.4L72.3,175z
	 M68.9,180.7l-0.6-0.3l-0.6-0.2l-1-1.9c4.1-3.8,9.7-6.4,14.2-7c-0.3,1-0.5,2.9-0.5,3.7c-3.8,0.3-8.4,2.4-11.3,5.2L68.9,180.7z
	 M71.6,185.5l-3,0.2c-0.4-1.4-0.6-3.2-0.6-4.3l3.2-0.3C71.1,182.2,71.3,184.1,71.6,185.5z"/>
<path class="st1" d="M37,161.2l-2.3-1.7c0.7-1.4,1.6-3,2.3-4l2.5,1.6C38.7,158.1,37.7,159.8,37,161.2z M41.6,141.9l-1.5-2.6l8-4.8
	l1.5,2.6L41.6,141.9z M36,146.9l1.7-1l-3.2-5.4l-1.7,1L36,146.9z M35.3,150.8L29,140.2l6.1-3.6l6.3,10.6L35.3,150.8z M43.2,147.7
	l-7.7-12.9l11-6.5l1.6,2.8l-8.7,5.2l4.4,7.4l8.7-5.2l1.6,2.7L43.2,147.7z M46.2,143.9l-6-10l2.1-1.3l6,10L46.2,143.9z M50,141.6
	l-6-10l2.3-1.4l6,10L50,141.6z M32.7,154.1l-7.8-13.1l2.4-1.4l7.8,13.1L32.7,154.1z M41.2,160.6l-4.3-7.2l2.6-1.5l4.3,7.2
	L41.2,160.6z M43.3,151.3c0-0.9,0.6-4.1,0.8-4.9l3.3,0.3c-0.6,1.4-1.4,4.1-1.8,5.4L43.3,151.3z M37.6,154.5l-0.3-0.6l-0.4-0.4
	l0.1-2.2c5.7-1.1,11.9-0.3,16.2,1.7c-0.6,0.7-1.7,2.3-1.9,3c-3.6-1.9-8.8-2.7-13-1.8L37.6,154.5z M47.7,152.9l-5.1-0.8l13.3-7.9
	l1.7,2.8L47.7,152.9z"/>
<path class="st1" d="M52.2,102l3.7-17.4l5.7,1.2c3.6,0.8,6.1,2.4,5.4,5.6c-0.3,1.6-1.6,3-3.1,3.3l0,0.1c1.8,0.8,2.9,2.5,2.4,4.8
	c-0.7,3.5-4,4.5-7.8,3.7L52.2,102z M57.8,92.5l2,0.4c2.2,0.5,3.3-0.2,3.6-1.6c0.3-1.5-0.6-2.3-2.6-2.8l-2.1-0.4L57.8,92.5z
	 M56.2,100.1l2.4,0.5c2.3,0.5,3.8-0.1,4.2-1.9c0.4-1.7-0.7-2.7-3.1-3.2l-2.4-0.5L56.2,100.1z M71,106.4c-2.4-0.5-2.9-2.3-2.4-4.7
	l3.2-15l3.5,0.7l-3.2,15.2c-0.2,0.8,0.1,1.2,0.5,1.2c0.1,0,0.2,0,0.5,0l-0.1,2.6C72.4,106.5,71.9,106.6,71,106.4z M80.9,108.5
	c-3.7-0.8-6-3.9-5.1-8.3c0.9-4.3,4.5-6.3,7.6-5.6c3.6,0.8,4.9,3.8,4.2,7.4c-0.1,0.7-0.3,1.3-0.5,1.6l-8.1-1.7c-0.2,2.2,1,3.6,3,4
	c1.1,0.2,2.1,0.1,3.2-0.3l0.7,2.4C84.3,108.6,82.5,108.8,80.9,108.5z M79.4,99.6l5.4,1.1c0.4-1.8-0.2-3.1-1.9-3.4
	C81.5,97,80.1,97.7,79.4,99.6z M92.6,111c-1.8-0.4-3.6-1.5-4.6-2.9l2-1.9c1,1.2,2,1.9,3.2,2.2c1.3,0.3,2.1-0.2,2.2-1
	c0.2-1-1.1-1.7-2.3-2.5c-1.5-1-3.2-2.4-2.7-4.6c0.5-2.3,2.7-3.6,5.7-3c1.9,0.4,3.2,1.5,4.1,2.6l-2,1.7c-0.8-0.9-1.6-1.5-2.6-1.7
	c-1.2-0.3-1.8,0.1-2,0.9c-0.2,0.9,0.9,1.6,2.2,2.4c1.6,1,3.3,2.3,2.8,4.7C98.2,110.3,96,111.7,92.6,111z M104.2,113.4
	c-1.8-0.4-3.5-1.5-4.6-2.9l2-1.9c1,1.2,2,1.9,3.2,2.2c1.3,0.3,2.1-0.2,2.2-1c0.2-1-1.1-1.7-2.3-2.5c-1.5-1-3.2-2.4-2.7-4.6
	c0.5-2.3,2.7-3.6,5.7-3c1.9,0.4,3.2,1.5,4.1,2.6l-2,1.7c-0.8-0.9-1.6-1.5-2.6-1.7c-1.2-0.3-1.8,0.1-2,0.9c-0.2,0.9,0.9,1.6,2.2,2.4
	c1.6,1,3.3,2.3,2.8,4.7C109.8,112.7,107.6,114.2,104.2,113.4z M112.2,114.8l2.8-13.1l3.5,0.7l-2.8,13.1L112.2,114.8z M117.1,99.9
	c-1.2-0.3-1.8-1.2-1.6-2.3c0.2-1.1,1.2-1.7,2.4-1.4c1.2,0.3,1.9,1.2,1.6,2.3C119.3,99.6,118.3,100.1,117.1,99.9z M119.3,116.3
	l2.8-13.1l2.8,0.6l-0.1,1.8l0.1,0c1.4-0.9,2.9-1.5,4.7-1.2c2.8,0.6,3.6,2.8,2.9,6.1l-1.7,8.2l-3.5-0.7l1.6-7.7
	c0.4-2.1,0-2.9-1.3-3.1c-1.1-0.2-1.9,0.1-3,0.9l-1.9,9L119.3,116.3z M137.7,126.2c-3.1-0.7-5.2-2.2-4.8-4.5c0.2-1.1,1.1-1.9,2.5-2.3
	l0-0.1c-0.6-0.6-1-1.4-0.7-2.5c0.2-1,1.1-1.7,2-2.1l0-0.1c-0.8-0.9-1.4-2.3-1.1-3.8c0.7-3.1,3.5-4.2,6.3-3.6
	c0.8,0.2,1.4,0.4,1.9,0.8l4.7,1l-0.5,2.5l-2.3-0.5c0.3,0.5,0.4,1.3,0.2,2.1c-0.6,3-3.2,4-6,3.4c-0.5-0.1-1.1-0.3-1.6-0.7
	c-0.4,0.3-0.7,0.5-0.8,1c-0.1,0.7,0.3,1.2,1.8,1.5l2.3,0.5c3.2,0.7,4.7,2,4.2,4.3C145.3,125.7,142.1,127.1,137.7,126.2z
	 M140.5,114.3c1.1,0.2,2.3-0.5,2.6-2c0.3-1.5-0.4-2.6-1.6-2.8c-1.1-0.2-2.2,0.4-2.6,2C138.6,112.9,139.3,114,140.5,114.3z
	 M138.7,124.1c2,0.4,3.5-0.2,3.7-1.2c0.2-0.9-0.5-1.4-1.9-1.7l-1.6-0.3c-0.8-0.2-1.3-0.3-1.8-0.6c-0.7,0.4-1.1,0.8-1.2,1.4
	C135.7,122.8,136.8,123.7,138.7,124.1z M150.9,116.9l1.3-8.8l0.6-3.3l3.5,0.7l-0.8,3.2l-2.3,8.6L150.9,116.9z M150.7,123.3
	c-1.2-0.3-1.9-1.4-1.7-2.7c0.3-1.3,1.4-2,2.6-1.8c1.2,0.3,2,1.4,1.7,2.7S152,123.6,150.7,123.3z"/>
<defs>
	<filter id="Adobe_OpacityMaskFilter" filterUnits="userSpaceOnUse" x="14.1" y="49.7" width="19.8" height="80.1">
		<feColorMatrix  type="matrix" values="1 0 0 0 0  0 1 0 0 0  0 0 1 0 0  0 0 0 1 0"/>
	</filter>
</defs>
<mask maskUnits="userSpaceOnUse" x="14.1" y="49.7" width="19.8" height="80.1" id="path-11-inside-1_200_17220_1_">
	<path class="st2" d="M19.3,128.5c-4.2-13-5.3-26.7-3.2-40.2c2.1-13.5,7.4-26.2,15.4-37.3l1,0.8c-7.9,10.9-13,23.4-15.1,36.7
		c-2.1,13.3-1,26.8,3.1,39.6L19.3,128.5z"/>
</mask>
<path class="st3" d="M19.3,128.5c-4.2-13-5.3-26.7-3.2-40.2c2.1-13.5,7.4-26.2,15.4-37.3l1,0.8c-7.9,10.9-13,23.4-15.1,36.7
	c-2.1,13.3-1,26.8,3.1,39.6L19.3,128.5z"/>
<defs>
	<filter id="Adobe_OpacityMaskFilter_1_" filterUnits="userSpaceOnUse" x="163.5" y="82.8" width="25.6" height="78.3">
		<feColorMatrix  type="matrix" values="1 0 0 0 0  0 1 0 0 0  0 0 1 0 0  0 0 0 1 0"/>
	</filter>
</defs>
<mask maskUnits="userSpaceOnUse" x="163.5" y="82.8" width="25.6" height="78.3" id="path-12-inside-2_200_17220_1_">
	<path class="st4" d="M165.9,159.7c9.1-10.1,15.7-22.3,19.2-35.4c3.5-13.2,3.9-27,1.1-40.3l-1.3,0.3c2.8,13.1,2.4,26.7-1.1,39.7
		c-3.5,13-10,24.9-19,34.9L165.9,159.7z"/>
</mask>
<path class="st5" d="M165.9,159.7c9.1-10.1,15.7-22.3,19.2-35.4c3.5-13.2,3.9-27,1.1-40.3l-1.3,0.3c2.8,13.1,2.4,26.7-1.1,39.7
	c-3.5,13-10,24.9-19,34.9L165.9,159.7z"/>
</svg>
