<svg width="90" height="83" viewBox="0 0 90 83" fill="none" xmlns="http://www.w3.org/2000/svg">
<path d="M3.9505 0.396166L85.5695 0.597509L85.5411 12.1103L3.9221 11.9089L3.9505 0.396166ZM49.0819 31.8636L57.8046 24.5843C67.8018 31.9098 82.1896 42.7093 89.0039 50.2142L79.4355 58.8018C73.2762 51.3922 59.4518 39.8452 49.0819 31.8636ZM45.4048 4.71045L57.9363 9.14058C47.2172 28.8638 30.135 47.9161 8.57932 59.095C6.80831 56.0954 3.26306 51.4067 0.929302 48.8737C20.983 39.4695 37.5949 21.352 45.4048 4.71045ZM38.5162 27.3447L50.9016 15.1136L50.7367 81.9439L38.3815 81.9134L38.5162 27.3447Z" fill="#436335"/>
</svg>
