<svg width="110" height="50" viewBox="0 0 110 50" fill="none" xmlns="http://www.w3.org/2000/svg">
<path d="M102.6 0L0 27L3.5 49L109.2 33.6L102.6 0Z" fill="#C99E52"/>
<path d="M10.9707 40.2541C10.2553 40.3969 9.58126 40.3552 8.94876 40.129C8.31626 39.9028 7.77701 39.5308 7.33102 39.0128C6.89445 38.493 6.60194 37.8613 6.45352 37.1175C6.30697 36.3832 6.33549 35.6923 6.53909 35.0447C6.75023 34.3858 7.10441 33.8306 7.60163 33.3789C8.09885 32.9273 8.70521 32.6301 9.4207 32.4873C10.0891 32.3539 10.7255 32.3541 11.3298 32.4881C11.9341 32.622 12.4348 32.8745 12.8319 33.2455L11.9953 34.7928C11.8278 34.6402 11.6311 34.513 11.4052 34.4113C11.1775 34.3001 10.9375 34.2256 10.6852 34.1879C10.4423 34.1482 10.1985 34.1528 9.95374 34.2017C9.56775 34.2787 9.24292 34.4415 8.97924 34.6899C8.72309 34.927 8.54223 35.2225 8.43665 35.5764C8.33107 35.9303 8.31962 36.3144 8.40229 36.7286C8.48308 37.1334 8.64014 37.479 8.87348 37.7652C9.11435 38.0402 9.40515 38.2465 9.74586 38.3841C10.0847 38.5122 10.4424 38.5387 10.819 38.4636C11.0638 38.4147 11.2878 38.3357 11.4912 38.2266C11.6927 38.1081 11.8735 37.9594 12.0336 37.7807C12.2031 37.6 12.3482 37.3948 12.4688 37.1652L13.821 38.2756C13.5817 38.7443 13.205 39.1621 12.6909 39.529C12.1749 39.8865 11.6015 40.1282 10.9707 40.2541ZM18.8504 38.6815C18.0879 38.8337 17.3725 38.8052 16.7042 38.5959C16.0434 38.3754 15.4807 38.008 15.0158 37.4939C14.5604 36.9778 14.2576 36.3432 14.1073 35.5901C13.957 34.8369 13.994 34.1394 14.2183 33.4975C14.4501 32.8443 14.8288 32.289 15.3542 31.8317C15.8891 31.3726 16.5378 31.0669 17.3004 30.9147C18.0535 30.7644 18.7605 30.7995 19.4212 31.0201C20.0914 31.2387 20.6542 31.6061 21.1096 32.1221C21.5631 32.6288 21.865 33.2587 22.0153 34.0118C22.1656 34.765 22.1296 35.4672 21.9071 36.1185C21.6847 36.7699 21.3061 37.3251 20.7712 37.7843C20.2438 38.2321 19.6036 38.5312 18.8504 38.6815ZM18.501 36.9305C18.8681 36.8572 19.1798 36.702 19.4359 36.4649C19.6902 36.2184 19.8654 35.9191 19.9616 35.567C20.0653 35.2037 20.0767 34.8197 19.9959 34.4148C19.9133 34.0006 19.7553 33.6504 19.5219 33.3641C19.2961 33.0665 19.0195 32.8574 18.6919 32.7368C18.3625 32.6068 18.0142 32.5784 17.647 32.6516C17.2705 32.7268 16.955 32.8876 16.7008 33.1342C16.4465 33.3807 16.2666 33.6809 16.161 34.0348C16.0554 34.3887 16.0487 34.7719 16.1408 35.1842C16.2121 35.5909 16.3654 35.9421 16.6007 36.2378C16.834 36.5241 17.1154 36.7322 17.4448 36.8623C17.7723 36.9829 18.1244 37.0056 18.501 36.9305ZM24.2567 37.4558L22.7659 29.9855L24.7005 29.5994L25.0275 31.0172L24.7422 31.1329C24.797 30.8674 24.8893 30.6189 25.0193 30.3874C25.1493 30.1559 25.3132 29.947 25.511 29.7607C25.7181 29.5725 25.9413 29.4154 26.1805 29.2893C26.4177 29.1539 26.6635 29.0608 26.9177 29.0101C27.3036 28.933 27.6642 28.9247 27.9993 28.9851C28.3344 29.0455 28.6365 29.1859 28.9056 29.4062C29.1729 29.6172 29.41 29.9223 29.6169 30.3215L29.3006 30.3553L29.3544 30.1096C29.4317 29.8592 29.5466 29.6258 29.6992 29.4094C29.8499 29.1835 30.0298 28.9812 30.2389 28.8024C30.446 28.6143 30.6692 28.4571 30.9084 28.3311C31.1475 28.205 31.3895 28.1176 31.6342 28.0688C32.2179 27.9523 32.7263 27.9732 33.1592 28.1315C33.5903 28.2804 33.946 28.5667 34.2264 28.9905C34.5161 29.4123 34.7277 29.9574 34.8611 30.6259L35.7658 35.1589L33.7605 35.5591L32.884 31.1673C32.8164 30.8284 32.7139 30.56 32.5765 30.3623C32.4392 30.1645 32.2707 30.0317 32.0712 29.9639C31.8698 29.8866 31.6279 29.8762 31.3454 29.9325C31.1289 29.9757 30.934 30.0538 30.7607 30.1667C30.595 30.2683 30.4547 30.3991 30.3398 30.5591C30.2324 30.7077 30.158 30.8743 30.1165 31.0588C30.075 31.2433 30.0749 31.4391 30.1162 31.6462L31.0068 36.1086L29.0016 36.5088L28.1223 32.1029C28.0603 31.7922 27.9559 31.539 27.8091 31.3431C27.6699 31.1359 27.4995 30.9937 27.2981 30.9165C27.0967 30.8392 26.8642 30.8268 26.6006 30.8795C26.3841 30.9227 26.1892 31.0007 26.0159 31.1136C25.8502 31.2152 25.7146 31.3451 25.6091 31.5032C25.5017 31.6519 25.4226 31.8194 25.3717 32.0058C25.3302 32.1902 25.3291 32.3813 25.3686 32.579L26.262 37.0556L24.2567 37.4558ZM37.8447 34.744L36.3539 27.2737L38.3591 26.8735L39.85 34.3438L37.8447 34.744ZM37.0352 25.5372C36.6492 25.6142 36.3291 25.5802 36.075 25.4351C35.8209 25.29 35.6591 25.0433 35.5896 24.695C35.5257 24.3749 35.5823 24.0944 35.7594 23.8535C35.944 23.6013 36.2246 23.4376 36.6012 23.3624C36.9872 23.2854 37.3081 23.3241 37.5641 23.4786C37.8182 23.6237 37.9791 23.8657 38.0467 24.2046C38.1125 24.5341 38.0521 24.8203 37.8657 25.0631C37.6886 25.304 37.4118 25.462 37.0352 25.5372ZM41.9917 33.9164L40.5008 26.4461L42.4214 26.0628L42.7822 27.5766L42.4206 27.825C42.4566 27.4654 42.5791 27.1228 42.7882 26.7972C43.0049 26.4603 43.2846 26.1695 43.6273 25.9249C43.9701 25.6803 44.3486 25.5166 44.7628 25.434C45.3277 25.3212 45.8209 25.3403 46.2426 25.4911C46.6737 25.64 47.0294 25.9263 47.3097 26.35C47.5976 26.7625 47.8083 27.3029 47.9417 27.9713L48.8548 32.5467L46.8495 32.9469L45.9674 28.5268C45.8998 28.1879 45.7963 27.9149 45.6571 27.7077C45.5178 27.5006 45.339 27.3649 45.1207 27.3008C44.9098 27.2254 44.6651 27.2253 44.3864 27.3005C44.1605 27.3456 43.9562 27.4256 43.7735 27.5403C43.5984 27.6438 43.4533 27.7755 43.3384 27.9355C43.2329 28.0936 43.1547 28.2659 43.1038 28.4522C43.0623 28.6367 43.0613 28.8278 43.1008 29.0255L43.997 33.5162L43.0085 33.7134C42.7919 33.7567 42.5989 33.7952 42.4295 33.829C42.26 33.8628 42.1141 33.8919 41.9917 33.9164ZM54.8278 34.7319C54.2347 34.8503 53.6331 34.8774 53.0232 34.8131C52.4151 34.7583 51.9049 34.63 51.4927 34.4284L51.9113 32.8471C52.1259 32.9413 52.3659 33.0158 52.6313 33.0705C52.8968 33.1252 53.1669 33.1545 53.4418 33.1584C53.7261 33.1604 54.0095 33.1332 54.2919 33.0768C54.7814 32.9791 55.1665 32.824 55.4471 32.6113C55.7371 32.3968 55.9321 32.123 56.032 31.7898C56.1338 31.466 56.1387 31.0734 56.0466 30.6121L55.7874 29.3129L56.1404 29.3159C56.1459 29.6379 56.0479 29.956 55.8463 30.2703C55.6428 30.5752 55.3641 30.8462 55.01 31.0833C54.6541 31.311 54.2737 31.4652 53.8689 31.546C53.1722 31.685 52.5237 31.6481 51.9232 31.4351C51.3227 31.2221 50.8107 30.8641 50.3873 30.3613C49.9639 29.8584 49.6789 29.2398 49.5324 28.5055C49.3821 27.7524 49.4002 27.0586 49.5869 26.4242C49.7811 25.7785 50.1089 25.2383 50.5703 24.8036C51.0393 24.3576 51.6127 24.0669 52.2906 23.9316C52.573 23.8753 52.8479 23.8547 53.1152 23.8699C53.392 23.8832 53.6508 23.9294 53.8918 24.0086C54.1403 24.0764 54.3643 24.1688 54.5638 24.2856C54.7708 24.3911 54.9478 24.5173 55.0946 24.6642C55.2413 24.8112 55.3458 24.9665 55.4078 25.1303L55.0209 25.325L54.7363 23.6051L56.6569 23.2218L58.035 30.1272C58.1571 30.7391 58.1757 31.2983 58.0908 31.8047C58.0059 32.3111 57.8212 32.7592 57.5367 33.1488C57.2636 33.5459 56.8944 33.879 56.4293 34.148C55.9735 34.4152 55.4397 34.6098 54.8278 34.7319ZM53.9148 29.8629C54.3102 29.784 54.636 29.6259 54.8921 29.3888C55.1577 29.1498 55.3385 28.8543 55.4347 28.5023C55.5309 28.1503 55.5357 27.7577 55.4493 27.3247C55.3647 26.901 55.2105 26.5451 54.9866 26.257C54.7608 25.9594 54.4794 25.7513 54.1424 25.6325C53.8149 25.5119 53.4534 25.491 53.058 25.5699C52.672 25.647 52.3472 25.8097 52.0835 26.0581C51.8274 26.2952 51.6512 26.5898 51.5551 26.9418C51.4589 27.2938 51.4531 27.6817 51.5376 28.1053C51.6222 28.529 51.7774 28.8896 52.0032 29.1871C52.2271 29.4753 52.5028 29.6797 52.8304 29.8003C53.1673 29.919 53.5288 29.9399 53.9148 29.8629ZM67.0121 29.0698C66.3155 29.2089 65.6716 29.2199 65.0804 29.1029C64.4969 28.9747 63.9999 28.741 63.5896 28.4019L64.6181 27.0807C64.972 27.3331 65.3419 27.4942 65.7278 27.5641C66.1118 27.6245 66.4827 27.619 66.8405 27.5476C66.9817 27.5194 67.106 27.4799 67.2133 27.4291C67.3282 27.367 67.4223 27.2993 67.4958 27.2259C67.5674 27.1431 67.6135 27.0556 67.6343 26.9633C67.6626 26.8598 67.6664 26.7562 67.6457 26.6527C67.6044 26.4456 67.4868 26.2977 67.2929 26.2092C67.1893 26.1809 67.0321 26.1535 66.8213 26.1271C66.6086 26.0912 66.3384 26.0619 66.0108 26.0392C65.5063 26.0126 65.0686 25.9531 64.6977 25.8607C64.3344 25.757 64.0332 25.6213 63.7942 25.4537C63.5853 25.2898 63.4112 25.1043 63.2719 24.8971C63.1402 24.6787 63.0462 24.4282 62.9898 24.1458C62.9222 23.8069 62.9365 23.4859 63.0326 23.1828C63.1269 22.8703 63.2861 22.5889 63.5102 22.3386C63.7438 22.0864 64.0244 21.8738 64.3521 21.7007C64.6778 21.5182 65.0337 21.3885 65.4197 21.3114C65.8057 21.2344 66.1917 21.2063 66.5776 21.2272C66.9636 21.2481 67.3297 21.3169 67.6761 21.4338C68.03 21.5394 68.3481 21.6864 68.6305 21.8748L67.7939 23.2751C67.5926 23.1489 67.3704 23.0415 67.1276 22.9529C66.8942 22.8625 66.657 22.8021 66.416 22.7719C66.175 22.7417 65.9651 22.7444 65.7862 22.7801C65.6262 22.812 65.4831 22.8553 65.3569 22.9098C65.2402 22.9625 65.1451 23.0255 65.0716 23.0989C64.9982 23.1723 64.9473 23.2608 64.919 23.3643C64.8983 23.4566 64.8982 23.5545 64.9189 23.658C64.9396 23.7616 64.9828 23.8557 65.0487 23.9405C65.124 24.0234 65.2152 24.0884 65.3225 24.1355C65.4374 24.1713 65.6011 24.2071 65.8139 24.243C66.036 24.277 66.3307 24.3063 66.6978 24.3309C67.1741 24.3631 67.5826 24.4235 67.9233 24.5121C68.2735 24.5989 68.5624 24.7223 68.7902 24.8825C68.984 25.02 69.1402 25.1895 69.2588 25.391C69.3773 25.5925 69.4629 25.825 69.5155 26.0886C69.6075 26.5499 69.5584 26.9905 69.3681 27.4102C69.1853 27.8187 68.8886 28.1716 68.4781 28.4689C68.0656 28.7568 67.577 28.9571 67.0121 29.0698ZM74.8952 27.4966C74.1327 27.6488 73.4173 27.6202 72.749 27.411C72.0882 27.1904 71.5255 26.8231 71.0606 26.3089C70.6052 25.7928 70.3024 25.1582 70.1521 24.4051C70.0018 23.6519 70.0388 22.9544 70.2631 22.3125C70.4949 21.6593 70.8736 21.104 71.399 20.6468C71.9339 20.1876 72.5826 19.8819 73.3452 19.7297C74.0983 19.5794 74.8053 19.6145 75.466 19.8351C76.1362 20.0538 76.699 20.4211 77.1544 20.9372C77.6079 21.4438 77.9098 22.0737 78.0601 22.8269C78.2104 23.58 78.1744 24.2822 77.9519 24.9336C77.7295 25.5849 77.3509 26.1401 76.816 26.5993C76.2886 27.0472 75.6484 27.3463 74.8952 27.4966ZM74.5458 25.7455C74.9129 25.6722 75.2246 25.517 75.4807 25.2799C75.735 25.0334 75.9102 24.7341 76.0064 24.3821C76.1101 24.0188 76.1215 23.6347 76.0407 23.2299C75.9581 22.8156 75.8001 22.4654 75.5667 22.1791C75.3409 21.8816 75.0643 21.6725 74.7367 21.5518C74.4073 21.4218 74.059 21.3934 73.6918 21.4667C73.3153 21.5418 72.9998 21.7027 72.7456 21.9492C72.4913 22.1957 72.3114 22.496 72.2058 22.8499C72.1002 23.2038 72.0935 23.5869 72.1856 23.9993C72.2569 24.406 72.4102 24.7571 72.6455 25.0528C72.8788 25.3391 73.1602 25.5472 73.4896 25.6773C73.8171 25.7979 74.1692 25.8207 74.5458 25.7455ZM83.8177 25.7159C83.0552 25.8681 82.3397 25.8395 81.6715 25.6303C81.0107 25.4097 80.4479 25.0424 79.9831 24.5282C79.5277 24.0122 79.2249 23.3776 79.0746 22.6244C78.9243 21.8713 78.9613 21.1737 79.1856 20.5318C79.4174 19.8786 79.7961 19.3234 80.3215 18.8661C80.8564 18.4069 81.5051 18.1012 82.2677 17.9491C83.0208 17.7988 83.7278 17.8339 84.3885 18.0544C85.0587 18.2731 85.6215 18.6405 86.0769 19.1565C86.5304 19.6631 86.8323 20.293 86.9826 21.0462C87.1329 21.7993 87.0969 22.5016 86.8744 23.1529C86.652 23.8042 86.2733 24.3595 85.7385 24.8186C85.2111 25.2665 84.5709 25.5656 83.8177 25.7159ZM83.4683 23.9648C83.8354 23.8916 84.1471 23.7364 84.4032 23.4992C84.6575 23.2527 84.8327 22.9534 84.9289 22.6014C85.0326 22.2381 85.044 21.854 84.9632 21.4492C84.8806 21.035 84.7226 20.6847 84.4892 20.3984C84.2634 20.1009 83.9867 19.8918 83.6592 19.7712C83.3298 19.6411 82.9815 19.6127 82.6143 19.686C82.2378 19.7612 81.9223 19.922 81.6681 20.1685C81.4138 20.4151 81.2339 20.7153 81.1283 21.0692C81.0227 21.4231 81.016 21.8062 81.1081 22.2186C81.1794 22.6253 81.3327 22.9765 81.5679 23.2721C81.8013 23.5584 82.0827 23.7666 82.4121 23.8966C82.7396 24.0172 83.0917 24.04 83.4683 23.9648ZM89.2381 24.4873L87.7473 17.017L89.6678 16.6337L90.0287 18.1476L89.6671 18.3959C89.703 18.0364 89.8255 17.6938 90.0346 17.3681C90.2513 17.0312 90.531 16.7405 90.8737 16.4958C91.2165 16.2512 91.595 16.0876 92.0092 16.0049C92.5741 15.8922 93.0673 15.9112 93.489 16.062C93.9201 16.2109 94.2758 16.4972 94.5562 16.921C94.844 17.3334 95.0547 17.8738 95.1881 18.5422L96.1012 23.1176L94.0959 23.5178L93.2138 19.0978C93.1462 18.7589 93.0427 18.4858 92.9035 18.2787C92.7643 18.0715 92.5855 17.9359 92.3671 17.8718C92.1563 17.7964 91.9115 17.7963 91.6328 17.8715C91.4069 17.9166 91.2026 17.9965 91.0199 18.1113C90.8448 18.2147 90.6998 18.3465 90.5849 18.5065C90.4794 18.6646 90.4012 18.8368 90.3502 19.0232C90.3087 19.2077 90.3077 19.3988 90.3472 19.5965L91.2434 24.0871L90.2549 24.2844C90.0384 24.3276 89.8454 24.3661 89.6759 24.3999C89.5064 24.4337 89.3605 24.4629 89.2381 24.4873ZM97.7107 19.1107C97.5208 18.5515 97.3262 17.9687 97.1269 17.3624C96.937 16.7542 96.7631 16.1526 96.6052 15.5576C96.4454 14.9532 96.3101 14.3732 96.1992 13.8178L95.985 12.7446L98.0891 12.3246L98.3033 13.3979C98.4179 13.9721 98.5137 14.5747 98.5906 15.2054C98.677 15.8343 98.7483 16.4612 98.8045 17.0863C98.8607 17.7114 98.9057 18.3045 98.9393 18.8655L97.7107 19.1107ZM99.0422 22.6922C98.6751 22.7655 98.372 22.7183 98.1329 22.5506C97.8939 22.383 97.7359 22.1061 97.6588 21.7201C97.5893 21.3718 97.6365 21.0687 97.8004 20.8109C97.9718 20.5417 98.227 20.3733 98.5659 20.3057C98.9237 20.2343 99.2221 20.2824 99.4611 20.4501C99.7001 20.6177 99.8572 20.8898 99.9324 21.2664C100.004 21.6242 99.9585 21.9367 99.7965 22.2039C99.6326 22.4618 99.3811 22.6246 99.0422 22.6922Z" fill="white"/>
</svg>
