<svg width="99" height="98" viewBox="0 0 99 98" fill="none" xmlns="http://www.w3.org/2000/svg">
<path d="M42.7669 10.8L78.7634 6.75352L79.9031 16.8921L43.9066 20.9385L42.7669 10.8ZM42.7163 43.8662L92.665 38.2514L93.857 48.855L43.9083 54.4698L42.7163 43.8662ZM61.442 32.8132L72.9758 31.5167L78.1306 77.3727C78.7684 83.0465 77.8834 86.0659 74.258 88.1689C70.5291 90.1892 65.3517 91.0538 58.0036 91.8798C57.09 88.7801 54.9034 84.4106 53.0806 81.6014C57.7522 81.2647 63.24 80.6478 64.7283 80.4805C66.2165 80.3132 66.7223 79.7854 66.5759 78.4832L61.442 32.8132ZM74.4847 7.23449L77.4612 6.8999L80.0028 6.04905L88.1434 10.5969C83.442 19.8851 76.3243 31.1402 68.3745 38.3446C66.7702 36.6411 63.3766 34.1027 61.442 32.8132C67.1501 26.6143 72.5632 16.1159 74.7566 9.65286L74.4847 7.23449ZM8.2965 60.2626L14.1257 51.7896C25.3297 59.2898 41.82 70.2459 49.6022 77.4713L43.2997 87.5988C35.7547 79.9699 19.7701 68.486 8.2965 60.2626ZM8.2965 60.2626C10.3881 47.0293 11.6422 25.5073 10.8042 8.83576L21.9356 8.14959C22.3305 25.907 20.8602 48.0185 18.8219 62.5644L8.2965 60.2626ZM27.7084 20.1221L38.126 18.951L39.3075 29.4616C41.315 47.3204 41.8881 75.0419 18.4934 96.5096C16.6403 94.269 12.4085 90.9771 9.79148 89.4817C31.3083 70.5798 30.6256 46.073 28.869 30.4467L27.7084 20.1221ZM3.00667 29.9631C13.5685 28.399 29.0182 25.9088 43.6203 23.4196L44.6461 33.3826C30.809 35.9741 16.0313 38.5772 5.2218 40.4517L3.00667 29.9631Z" fill="#436335"/>
</svg>
