<svg width="234" height="235" viewBox="0 0 234 235" fill="none" xmlns="http://www.w3.org/2000/svg">
<circle cx="117.174" cy="117.546" r="114.839" transform="rotate(0.915787 117.174 117.546)" fill="#FCF6F1"/>
<circle cx="117.287" cy="117.581" r="104.214" transform="rotate(0.915787 117.287 117.581)" stroke="#CA9E52"/>
<path d="M88.7533 90.4255L92.2462 73.9927L96.237 74.8409L92.7441 91.2738L88.7533 90.4255ZM78.5649 88.2599L82.0578 71.8271L86.0486 72.6753L82.5557 89.1082L78.5649 88.2599ZM81.4765 82.1804L82.2584 78.6171L92.9868 80.8975L92.2283 84.4658L81.4765 82.1804ZM94.77 91.7044L104.766 76.6537L108.146 77.3723L111.109 95.1774L107.071 94.3191L105.744 85.3266C105.688 84.9714 105.638 84.5926 105.593 84.1904C105.547 83.7882 105.504 83.3781 105.462 82.9603C105.423 82.5267 105.381 82.1089 105.335 81.7067C105.309 81.2921 105.292 80.9122 105.283 80.5669L105.993 80.6931C105.816 81.0644 105.624 81.4246 105.419 81.7736C105.23 82.1259 105.033 82.4765 104.828 82.8255C104.642 83.1622 104.438 83.5034 104.218 83.8491C104 84.1791 103.787 84.5264 103.579 84.8911L98.7139 92.5427L94.77 91.7044ZM98.5374 89.2174L100.42 86.477L107.979 88.0837L108.561 91.3481L98.5374 89.2174ZM113.159 95.6132L116.652 79.1803L123.742 80.6872C124.775 80.9068 125.64 81.3362 126.339 81.9753C127.053 82.6178 127.558 83.3959 127.854 84.3095C128.167 85.2264 128.215 86.1935 127.998 87.2108C127.772 88.275 127.327 89.1782 126.662 89.9202C126.016 90.6498 125.235 91.1707 124.318 91.4829C123.416 91.7984 122.449 91.8464 121.416 91.6269L118.318 90.9682L117.15 96.4615L113.159 95.6132ZM118.991 87.4554L121.597 88.0092C121.941 88.0824 122.272 88.0629 122.59 87.9506C122.909 87.8383 123.186 87.6518 123.421 87.391C123.656 87.1303 123.816 86.8043 123.899 86.413C123.985 86.0061 123.972 85.6435 123.86 85.3252C123.748 85.0069 123.567 84.7396 123.319 84.5232C123.071 84.3068 122.774 84.162 122.43 84.0888L119.824 83.5349L118.991 87.4554ZM128.703 98.917L132.195 82.4842L139.285 83.9911C140.318 84.2106 141.184 84.64 141.882 85.2792C142.596 85.9217 143.101 86.6997 143.398 87.6133C143.71 88.5303 143.758 89.4974 143.542 90.5147C143.316 91.5789 142.87 92.482 142.205 93.224C141.559 93.9537 140.778 94.4746 139.861 94.7868C138.96 95.1023 137.993 95.1503 136.96 94.9307L133.861 94.272L132.693 99.7653L128.703 98.917ZM134.534 90.7592L137.14 91.3131C137.484 91.3863 137.816 91.3667 138.134 91.2544C138.452 91.1422 138.729 90.9557 138.964 90.6949C139.2 90.4341 139.359 90.1081 139.442 89.7169C139.529 89.3099 139.516 88.9473 139.403 88.629C139.291 88.3107 139.111 88.0434 138.862 87.827C138.614 87.6106 138.318 87.4659 137.973 87.3927L135.367 86.8388L134.534 90.7592ZM148.495 103.124L150.236 94.9311L150.156 96.1163L145.509 85.314L150.039 86.277L153.563 94.6322L151.512 94.1227L157.622 87.8887L162.012 88.8218L153.599 97.118L154.291 95.5965L152.509 103.977L148.495 103.124ZM71.1908 117.363L74.6837 100.93L78.6745 101.778L75.1816 118.211L71.1908 117.363ZM61.0024 115.197L64.4953 98.7643L68.4862 99.6125L64.9932 116.045L61.0024 115.197ZM63.914 109.118L64.696 105.554L75.4243 107.835L74.6658 111.403L63.914 109.118ZM86.7356 120.912C85.4836 120.646 84.386 120.192 83.4429 119.55C82.4998 118.908 81.7263 118.122 81.1225 117.192C80.5186 116.262 80.1152 115.236 79.9122 114.113C79.7092 112.99 79.739 111.811 80.0018 110.574C80.2646 109.338 80.7171 108.248 81.3592 107.305C82.0013 106.362 82.7873 105.589 83.7172 104.985C84.6471 104.381 85.6734 103.977 86.7961 103.774C87.9189 103.571 89.0984 103.601 90.3348 103.864C91.5712 104.127 92.6609 104.579 93.604 105.221C94.5471 105.864 95.3206 106.65 95.9245 107.579C96.5283 108.509 96.924 109.534 97.1113 110.653C97.3143 111.776 97.2844 112.956 97.0216 114.192C96.7621 115.413 96.3097 116.502 95.6642 117.461C95.0378 118.408 94.2596 119.183 93.3297 119.787C92.3999 120.391 91.3736 120.794 90.2508 120.997C89.1281 121.2 87.9563 121.172 86.7356 120.912ZM87.5105 117.151C88.1522 117.288 88.764 117.295 89.346 117.173C89.9437 117.055 90.4831 116.826 90.9641 116.487C91.4642 116.135 91.8853 115.693 92.2275 115.16C92.5697 114.628 92.814 114.017 92.9603 113.329C93.1067 112.64 93.1319 111.983 93.0359 111.357C92.9398 110.732 92.7333 110.164 92.4162 109.655C92.1181 109.134 91.7201 108.698 91.2222 108.346C90.74 107.999 90.1781 107.756 89.5364 107.62C88.8948 107.484 88.2751 107.475 87.6774 107.593C87.0954 107.715 86.5544 107.951 86.0543 108.303C85.5576 108.639 85.1381 109.073 84.796 109.606C84.4694 110.142 84.233 110.754 84.0866 111.443C83.9402 112.131 83.9056 112.794 83.9826 113.432C84.0786 114.058 84.2852 114.625 84.6023 115.134C84.9194 115.644 85.319 116.072 85.8012 116.42C86.2991 116.771 86.8689 117.015 87.5105 117.151ZM108.536 125.301L112.029 108.868L116.02 109.716L112.527 126.149L108.536 125.301ZM98.3478 123.135L101.841 106.702L105.832 107.551L102.339 123.983L98.3478 123.135ZM101.259 117.056L102.041 113.492L112.77 115.773L112.011 119.341L101.259 117.056ZM124.081 128.85C122.829 128.584 121.731 128.13 120.788 127.488C119.845 126.846 119.072 126.06 118.468 125.13C117.864 124.2 117.461 123.174 117.258 122.051C117.055 120.928 117.084 119.749 117.347 118.512C117.61 117.276 118.062 116.186 118.705 115.243C119.347 114.3 120.133 113.527 121.063 112.923C121.992 112.319 123.019 111.915 124.141 111.712C125.264 111.509 126.444 111.539 127.68 111.802C128.917 112.065 130.006 112.517 130.949 113.159C131.892 113.802 132.666 114.588 133.27 115.517C133.874 116.447 134.269 117.472 134.457 118.591C134.66 119.714 134.63 120.894 134.367 122.13C134.108 123.351 133.655 124.44 133.01 125.399C132.383 126.346 131.605 127.121 130.675 127.725C129.745 128.329 128.719 128.732 127.596 128.935C126.473 129.138 125.302 129.11 124.081 128.85ZM124.856 125.089C125.498 125.226 126.109 125.233 126.691 125.111C127.289 124.993 127.828 124.764 128.31 124.425C128.81 124.073 129.231 123.631 129.573 123.098C129.915 122.566 130.159 121.955 130.306 121.267C130.452 120.578 130.477 119.921 130.381 119.295C130.285 118.67 130.079 118.102 129.762 117.593C129.463 117.072 129.065 116.636 128.568 116.284C128.085 115.937 127.523 115.695 126.882 115.558C126.24 115.422 125.62 115.413 125.023 115.531C124.441 115.653 123.9 115.889 123.4 116.241C122.903 116.577 122.484 117.011 122.141 117.544C121.815 118.08 121.578 118.692 121.432 119.381C121.286 120.069 121.251 120.732 121.328 121.37C121.424 121.996 121.631 122.563 121.948 123.072C122.265 123.582 122.664 124.01 123.147 124.358C123.644 124.709 124.214 124.953 124.856 125.089ZM145.882 133.239L149.374 116.806L153.365 117.654L149.872 134.087L145.882 133.239ZM135.693 131.073L139.186 114.64L143.177 115.489L139.684 131.921L135.693 131.073ZM138.605 124.994L139.387 121.43L150.115 123.711L149.357 127.279L138.605 124.994ZM161.426 136.788C160.174 136.522 159.077 136.068 158.134 135.426C157.191 134.784 156.417 133.998 155.813 133.068C155.209 132.138 154.806 131.112 154.603 129.989C154.4 128.866 154.43 127.687 154.693 126.45C154.955 125.214 155.408 124.124 156.05 123.181C156.692 122.238 157.478 121.465 158.408 120.861C159.338 120.257 160.364 119.853 161.487 119.65C162.61 119.447 163.789 119.477 165.026 119.74C166.262 120.003 167.352 120.455 168.295 121.097C169.238 121.74 170.011 122.526 170.615 123.455C171.219 124.385 171.615 125.41 171.802 126.529C172.005 127.652 171.975 128.832 171.712 130.068C171.453 131.289 171 132.378 170.355 133.337C169.729 134.284 168.95 135.059 168.02 135.663C167.091 136.267 166.064 136.67 164.942 136.873C163.819 137.076 162.647 137.048 161.426 136.788ZM162.201 133.027C162.843 133.164 163.455 133.171 164.037 133.049C164.634 132.931 165.174 132.702 165.655 132.363C166.155 132.011 166.576 131.569 166.918 131.036C167.26 130.504 167.505 129.893 167.651 129.205C167.797 128.516 167.823 127.859 167.727 127.233C167.631 126.608 167.424 126.04 167.107 125.531C166.809 125.01 166.411 124.574 165.913 124.222C165.431 123.875 164.869 123.633 164.227 123.496C163.585 123.36 162.966 123.351 162.368 123.469C161.786 123.591 161.245 123.827 160.745 124.179C160.248 124.515 159.829 124.949 159.487 125.482C159.16 126.018 158.924 126.63 158.777 127.319C158.631 128.007 158.596 128.67 158.673 129.308C158.769 129.934 158.976 130.501 159.293 131.01C159.61 131.52 160.01 131.948 160.492 132.296C160.99 132.647 161.56 132.891 162.201 133.027ZM64.5346 146.618L67.2791 133.707L62.3962 132.669L63.1446 129.147L77.0187 132.096L76.2702 135.618L71.2699 134.555L68.5255 147.466L64.5346 146.618ZM83.0774 150.805C81.8253 150.539 80.7278 150.085 79.7847 149.443C78.8416 148.8 78.0681 148.014 77.4642 147.085C76.8603 146.155 76.4569 145.128 76.2539 144.006C76.0509 142.883 76.0808 141.703 76.3436 140.467C76.6064 139.231 77.0589 138.141 77.701 137.198C78.3431 136.255 79.1291 135.481 80.0589 134.877C80.9888 134.273 82.0151 133.87 83.1379 133.667C84.2606 133.464 85.4402 133.494 86.6765 133.757C87.9129 134.019 89.0027 134.472 89.9458 135.114C90.8889 135.756 91.6624 136.542 92.2662 137.472C92.8701 138.402 93.2657 139.427 93.4531 140.546C93.6561 141.669 93.6262 142.848 93.3634 144.085C93.1039 145.305 92.6514 146.395 92.006 147.354C91.3795 148.3 90.6014 149.075 89.6715 149.679C88.7416 150.283 87.7153 150.687 86.5926 150.89C85.4698 151.093 84.2981 151.064 83.0774 150.805ZM83.8523 147.044C84.4939 147.18 85.1058 147.188 85.6878 147.066C86.2854 146.948 86.8248 146.719 87.3059 146.379C87.8059 146.028 88.2271 145.586 88.5693 145.053C88.9114 144.521 89.1557 143.91 89.3021 143.221C89.4485 142.533 89.4736 141.876 89.3776 141.25C89.2816 140.624 89.075 140.057 88.758 139.548C88.4598 139.027 88.0618 138.59 87.564 138.239C87.0818 137.891 86.5198 137.649 85.8782 137.513C85.2365 137.376 84.6168 137.367 84.0192 137.486C83.4372 137.607 82.8961 137.844 82.3961 138.196C81.8994 138.532 81.4799 138.966 81.1377 139.499C80.8112 140.034 80.5747 140.647 80.4283 141.335C80.282 142.024 80.2473 142.687 80.3244 143.325C80.4204 143.951 80.6269 144.518 80.944 145.027C81.2611 145.536 81.6608 145.965 82.143 146.312C82.6408 146.664 83.2106 146.907 83.8523 147.044ZM106.458 155.529L108.2 147.336L108.119 148.522L103.472 137.719L108.003 138.682L111.526 147.037L109.476 146.528L115.585 140.294L119.975 141.227L111.562 149.523L112.254 148.002L110.472 156.383L106.458 155.529ZM125.008 159.717C123.756 159.451 122.658 158.997 121.715 158.355C120.772 157.713 119.999 156.927 119.395 155.997C118.791 155.067 118.387 154.041 118.184 152.918C117.981 151.795 118.011 150.616 118.274 149.38C118.537 148.143 118.989 147.053 119.631 146.11C120.274 145.167 121.06 144.394 121.989 143.79C122.919 143.186 123.946 142.783 125.068 142.58C126.191 142.377 127.371 142.406 128.607 142.669C129.843 142.932 130.933 143.385 131.876 144.027C132.819 144.669 133.593 145.455 134.197 146.385C134.801 147.314 135.196 148.339 135.383 149.459C135.586 150.581 135.557 151.761 135.294 152.997C135.034 154.218 134.582 155.308 133.936 156.266C133.31 157.213 132.532 157.988 131.602 158.592C130.672 159.196 129.646 159.599 128.523 159.802C127.4 160.005 126.229 159.977 125.008 159.717ZM125.783 155.956C126.424 156.093 127.036 156.1 127.618 155.979C128.216 155.86 128.755 155.631 129.236 155.292C129.736 154.94 130.158 154.498 130.5 153.966C130.842 153.433 131.086 152.823 131.233 152.134C131.379 151.445 131.404 150.788 131.308 150.163C131.212 149.537 131.005 148.97 130.688 148.461C130.39 147.939 129.992 147.503 129.494 147.152C129.012 146.804 128.45 146.562 127.809 146.425C127.167 146.289 126.547 146.28 125.95 146.398C125.368 146.52 124.827 146.757 124.327 147.108C123.83 147.444 123.41 147.879 123.068 148.411C122.742 148.947 122.505 149.559 122.359 150.248C122.212 150.936 122.178 151.6 122.255 152.238C122.351 152.863 122.557 153.431 122.874 153.94C123.192 154.449 123.591 154.877 124.073 155.225C124.571 155.576 125.141 155.82 125.783 155.956ZM143.515 163.553C142.154 163.264 140.999 162.732 140.051 161.958C139.107 161.169 138.432 160.224 138.028 159.124C137.64 158.027 137.579 156.853 137.845 155.6L139.995 145.483L144.033 146.341L141.928 156.247C141.801 156.842 141.819 157.41 141.982 157.952C142.149 158.478 142.429 158.93 142.823 159.308C143.22 159.671 143.7 159.912 144.264 160.032C144.858 160.158 145.411 160.137 145.921 159.967C146.451 159.785 146.906 159.489 147.288 159.08C147.673 158.655 147.928 158.145 148.055 157.55L150.16 147.643L154.057 148.471L151.907 158.589C151.641 159.841 151.099 160.888 150.283 161.728C149.482 162.572 148.489 163.163 147.305 163.5C146.125 163.822 144.861 163.839 143.515 163.553ZM155.455 166.214C154.813 166.077 154.35 165.791 154.067 165.354C153.799 164.921 153.737 164.368 153.88 163.695C154.013 163.069 154.309 162.601 154.768 162.289C155.226 161.978 155.753 161.885 156.348 162.012C156.989 162.148 157.45 162.442 157.73 162.894C158.014 163.331 158.084 163.886 157.941 164.558C157.811 165.169 157.517 165.63 157.058 165.941C156.6 166.253 156.065 166.343 155.455 166.214Z" fill="#CA9E52"/>
</svg>
