<svg width="224" height="87" viewBox="0 0 224 87" fill="none" xmlns="http://www.w3.org/2000/svg">
<path d="M31.2546 37.9871L49.1974 36.0418L49.7614 41.2433L31.8185 43.1886L31.2546 37.9871ZM29.5724 32.7137L34.7497 33.2629C33.9005 39.6798 32.0013 46.2106 29.0903 50.5335C28.2659 49.609 26.2674 47.653 25.1141 46.8124C27.53 43.2674 29.0336 37.9865 29.5724 32.7137ZM17.4324 39.196L19.8598 35.3118C22.2694 36.161 25.4724 37.6484 27.0541 38.8771L24.5196 43.1109C22.9857 41.8771 19.9052 40.1832 17.4324 39.196ZM18.1779 51.8615L20.4996 47.8921C22.9413 48.593 26.1765 49.9321 27.8433 51.055L25.4198 55.4216C23.8485 54.2884 20.6455 52.801 18.1779 51.8615ZM19.719 76.3178C20.9327 72.372 22.4708 66.0735 23.4454 60.3673L28.1202 62.5159C27.2848 67.7243 26.0819 73.5519 24.9135 78.3618L19.719 76.3178ZM33.1092 46.187L46.3278 44.7539L46.8245 49.335L33.6059 50.7682L33.1092 46.187ZM27.3574 56.3703L51.5993 53.742L52.1322 58.6572L27.8903 61.2855L27.3574 56.3703ZM33.4005 66.2404L52.1546 64.2071L52.6616 68.8837L33.9075 70.917L33.4005 66.2404ZM30.7232 46.4457L35.6384 45.9128C35.6009 54.0281 35.3875 64.5283 34.9096 70.8084L29.8513 71.3568C30.4993 64.8651 30.8559 54.3494 30.7232 46.4457ZM44.1326 44.9919L48.9047 44.4745C48.9047 44.4745 49.0754 46.0492 49.095 46.6748C50.3452 64.8861 50.3756 71.4008 48.9756 73.6287C48.1235 75.1212 47.1731 75.7071 45.6719 76.1112C44.4519 76.4366 42.3999 76.6591 40.2421 76.7965C40.0018 75.4707 39.2648 73.571 38.4093 72.3602C40.3336 72.2964 42.1044 72.1527 42.9634 72.0596C43.6792 71.982 44.0932 71.7922 44.5031 71.1201C45.4455 69.5695 45.5312 63.2354 44.2413 45.994L44.1326 44.9919ZM36.1253 52.1848L38.5286 49.4137C40.4184 50.3675 42.805 51.8952 44.0371 53.0169L41.6223 56.1273C40.4276 54.905 38.0307 53.2819 36.1253 52.1848ZM36.2678 62.405L38.6659 59.5861C40.5609 60.5877 42.9952 62.1102 44.1795 63.2371L41.7647 66.3475C40.57 65.1252 38.1679 63.4543 36.2678 62.405ZM8.64897 39.231L17.1432 38.31L20.1957 66.465L11.7015 67.386L11.1324 62.1367L15.3318 61.6815L13.4175 44.0249L9.21809 44.4802L8.64897 39.231ZM6.07207 39.5104L10.3669 39.0447L13.9006 71.6377L9.60578 72.1034L6.07207 39.5104Z" fill="#436335"/>
<path d="M62.3133 56.4098C76.0463 35.0222 111.323 22.3838 102.619 49.5718C97.1373 66.6924 85.0799 67.6249 94.236 47.4311C103.392 27.2373 120.556 30.6115 141.983 44.9103C146.811 48.214 159.418 51.9093 171.222 40.2612" stroke="#436335" stroke-width="3"/>
</svg>
