<svg width="350" height="324" viewBox="0 0 350 324" fill="none" xmlns="http://www.w3.org/2000/svg">
<path d="M73.7011 222.726V101.589H107.928V222.726H73.7011ZM0.406738 222.726V101.589H34.6338V222.726H0.406738ZM13.3715 177.387L13.5444 147.275H92.5433V177.387H13.3715Z" fill="#B5B5B5"/>
<path d="M228.498 86.8654V1.85693H252.517V86.8654H228.498ZM177.063 86.8654V1.85693H201.082V86.8654H177.063ZM186.161 55.0479L186.282 33.9173H241.72V55.0479H186.161Z" fill="#7AB5FA"/>
<path d="M51.8414 89.9025V4.89404H75.8604V89.9025H51.8414ZM0.406738 89.9025V4.89404H24.4258V89.9025H0.406738ZM9.50485 58.085L9.62616 36.9544H65.064V58.085H9.50485Z" fill="#7AB5FA"/>
<ellipse cx="126.265" cy="46.6366" rx="46.2487" ry="46.2992" fill="#7AB5FA"/>
<ellipse cx="303.677" cy="46.6366" rx="46.2487" ry="46.2992" fill="#7AB5FA"/>
<ellipse cx="179.346" cy="162.009" rx="60.6541" ry="60.7203" fill="#CA9E52"/>
<path d="M228.498 317.602V232.593H252.517V317.602H228.498ZM177.063 317.602V232.593H201.082V317.602H177.063ZM186.161 285.784L186.282 264.654H241.72V285.784H186.161Z" fill="#7AB5FA"/>
<path d="M51.8414 320.639V235.63H75.8604V320.639H51.8414ZM0.406738 320.639V235.63H24.4258V320.639H0.406738ZM9.50485 288.821L9.62616 267.691H65.064V288.821H9.50485Z" fill="#7AB5FA"/>
<ellipse cx="126.265" cy="277.375" rx="46.2487" ry="46.2992" fill="#7AB5FA"/>
<ellipse cx="303.677" cy="277.375" rx="46.2487" ry="46.2992" fill="#7AB5FA"/>
<path fill-rule="evenodd" clip-rule="evenodd" d="M347.508 101.289L288.82 191.61L230.131 101.289H347.508ZM288.892 222.731C297.476 222.731 304.434 215.765 304.434 207.171C304.434 198.578 297.476 191.612 288.892 191.612C280.308 191.612 273.349 198.578 273.349 207.171C273.349 215.765 280.308 222.731 288.892 222.731Z" fill="#436335"/>
</svg>
