<svg width="101" height="99" viewBox="0 0 101 99" fill="none" xmlns="http://www.w3.org/2000/svg">
<path d="M30.0147 28.7798L29.7288 35.0973L72.4231 37.0296L72.709 30.7121L30.0147 28.7798ZM29.2768 45.0831L28.9863 51.5025L71.6806 53.4348L71.9711 47.0154L29.2768 45.0831ZM30.748 12.5784L30.462 18.8959L73.1563 20.8282L73.4422 14.5107L30.748 12.5784ZM19.4077 1.44629L86.3531 4.47616L83.6322 64.5946L16.6868 61.5647L19.4077 1.44629ZM54.859 55.124L67.3922 55.6913L66.29 80.0443C66.2162 81.6747 66.4063 82.7383 66.8603 83.2354C67.3853 83.6676 68.5988 83.9267 70.5009 84.0128C70.9085 84.0312 71.5538 84.0604 72.4369 84.1004C73.3879 84.1434 74.4408 84.1911 75.5957 84.2433C76.7505 84.2956 77.8374 84.3448 78.8563 84.3909C79.8753 84.437 80.6565 84.4724 81.1999 84.497C82.3547 84.5493 83.2517 84.2835 83.8907 83.6998C84.5298 83.1161 85.0297 81.8454 85.3906 79.8877C85.7515 77.9301 86.0905 74.9503 86.4078 70.9486C87.2602 71.6679 88.3163 72.3964 89.5762 73.1341C90.9041 73.8749 92.2705 74.5153 93.6756 75.0554C95.1485 75.5985 96.3868 76.063 97.3904 76.4488C96.7399 81.7968 95.8391 85.9083 94.6879 88.7832C93.5337 91.726 91.9454 93.7303 89.9232 94.7959C87.9009 95.8616 85.1916 96.3176 81.795 96.1638C81.2516 96.1392 80.5044 96.1054 79.5533 96.0624C78.6702 96.0224 77.6852 95.9778 76.5984 95.9286C75.5115 95.8794 74.3906 95.8287 73.2358 95.7764C72.1489 95.7273 71.1639 95.6827 70.2808 95.6427C69.3977 95.6027 68.7184 95.572 68.2429 95.5505C64.235 95.3691 61.1317 94.7521 58.9331 93.6997C56.8023 92.6503 55.3462 90.9847 54.5645 88.703C53.8508 86.4244 53.58 83.3831 53.7522 79.579L54.859 55.124ZM29.8074 58.1765L42.85 58.7668C42.2334 63.3676 41.294 67.5794 40.0319 71.4023C38.8407 75.1603 36.9872 78.5139 34.4713 81.4632C32.0233 84.4155 28.6088 86.9157 24.2277 88.9637C19.8436 91.0797 14.1856 92.7636 7.25395 94.0154C6.96656 92.8453 6.44603 91.5624 5.69235 90.1669C5.00353 88.8424 4.21435 87.4793 3.32482 86.0777C2.50013 84.747 1.66469 83.6541 0.81849 82.799C6.77763 81.9796 11.5588 80.8686 15.1618 79.4661C18.768 77.9956 21.5358 76.249 23.4652 74.2262C25.4626 72.2064 26.8949 69.8888 27.762 67.2733C28.6322 64.5899 29.314 61.5576 29.8074 58.1765Z" fill="#436335"/>
</svg>
