<svg width="105" height="103" viewBox="0 0 105 103" fill="none" xmlns="http://www.w3.org/2000/svg">
<path d="M32.3237 0.503405L46.4844 3.68747C39.2318 26.8283 27.2182 47.72 12.7967 60.5211C10.3029 58.0469 4.34328 53.1024 1.09434 50.8473C15.5227 39.7741 26.4648 21.0467 32.3237 0.503405ZM64.0378 45.5225C70.9178 64.7194 85.3491 81.7266 104.389 89.6434C101.375 92.3553 97.0766 97.7724 95.0391 101.452C74.4792 91.3816 60.365 72.6452 51.6324 49.2435L64.0378 45.5225ZM32.1725 16.9201L66.1923 16.7857L66.2439 29.8536L25.7442 30.0137L32.1725 16.9201ZM61.3323 16.8049L63.9243 16.7947L66.4057 16.1369L75.8183 20.3117C65.8294 61.6075 41.7456 89.0269 12.529 102.103C10.5718 98.7622 5.68876 92.9495 2.33139 90.5867C31.0135 78.9173 53.2755 55.0691 61.3434 19.6129L61.3323 16.8049Z" fill="#436335"/>
</svg>
