<svg width="696" height="275" viewBox="0 0 696 275" fill="none" xmlns="http://www.w3.org/2000/svg">
<path d="M78.8974 73.4263L13.3335 190.874L695.525 191.041L78.8974 73.4263Z" fill="#9E9E9E"/>
<path d="M72.2172 152.073V155.187H75.4032V152.073H72.2172ZM70.1832 150.183H77.5632V157.059H70.1832V150.183ZM66.2232 145.863H81.6672V162.153H79.3272V148.059H68.4552V162.153H66.2232V145.863ZM67.4832 159.165H80.6592V161.181H67.4832V159.165ZM94.1052 145.971H101.593V147.789H94.1052V145.971ZM96.2472 153.135V154.233H99.3432V153.135H96.2472ZM96.2472 155.745V156.825H99.3432V155.745H96.2472ZM96.2472 150.561V151.623H99.3432V150.561H96.2472ZM94.5012 148.941H101.161V158.445H94.5012V148.941ZM96.8412 146.979L99.0912 147.213C98.7852 148.311 98.4612 149.427 98.2092 150.183L96.4992 149.877C96.6612 149.031 96.8052 147.825 96.8412 146.979ZM96.0132 158.643L97.6872 159.669C96.9312 160.587 95.7072 161.613 94.6632 162.189C94.3392 161.829 93.7452 161.253 93.2952 160.911C94.3032 160.389 95.4372 159.399 96.0132 158.643ZM98.1732 159.633L99.7212 158.679C100.477 159.345 101.431 160.299 101.899 160.965L100.279 162.045C99.8652 161.379 98.9292 160.353 98.1732 159.633ZM90.2532 153.099L91.6932 152.739C91.9812 153.279 92.2872 154.017 92.4132 154.485L90.9192 154.935C90.7932 154.431 90.5232 153.657 90.2532 153.099ZM88.7772 156.069H93.6192V157.257H88.7772V156.069ZM88.7772 157.905H93.6372V159.111H88.7772V157.905ZM90.7032 154.773H92.1072V160.551H90.7032V154.773ZM89.5512 154.107H93.7992V155.439H89.5512V161.973H87.9852V155.403L89.1012 154.107H89.5512ZM88.6332 152.631L90.1092 153.045C89.5692 154.737 88.6692 156.519 87.6612 157.635C87.4992 157.311 87.0312 156.573 86.7252 156.249C87.5532 155.349 88.2372 153.999 88.6332 152.631ZM86.5452 148.527H93.6372V152.721H86.5452V151.119H91.7292V150.129H86.5452V148.527ZM92.1792 145.503L93.7452 146.943C91.6572 147.537 88.7772 147.915 86.3472 148.077C86.2932 147.663 86.0232 146.961 85.8252 146.565C88.0932 146.367 90.6672 145.989 92.1792 145.503ZM85.8072 146.565H87.5892V152.037C87.5892 154.881 87.4092 159.165 86.3292 161.955C85.9872 161.685 85.1772 161.271 84.7092 161.109C85.7352 158.481 85.8072 154.665 85.8072 152.037V146.565ZM88.8312 159.759H93.9252V161.163H88.8312V159.759ZM106.525 145.791H119.179V151.623H116.983V147.303H108.613V151.623H106.525V145.791ZM109.189 148.005H116.407V149.283H109.189V148.005ZM109.189 149.967H116.353V151.317H109.189V149.967ZM104.725 152.037H120.871V153.765H104.725V152.037ZM112.933 154.431H118.855V156.087H112.933V154.431ZM107.497 154.467H111.583V155.961H107.497V154.467ZM107.497 156.699H111.583V158.193H107.497V156.699ZM115.183 155.925C116.209 158.121 118.333 159.777 121.213 160.461C120.781 160.839 120.223 161.631 119.935 162.135C116.839 161.235 114.697 159.219 113.455 156.411L115.183 155.925ZM118.369 154.431H118.747L119.107 154.359L120.439 154.863C119.341 158.643 116.785 160.929 113.527 162.117C113.293 161.613 112.771 160.839 112.375 160.425C115.219 159.579 117.559 157.527 118.369 154.737V154.431ZM104.545 159.399C106.345 159.291 109.045 159.075 111.637 158.841L111.673 160.497C109.225 160.785 106.651 161.037 104.743 161.217L104.545 159.399ZM110.485 152.595H112.537V162.153H110.485V152.595ZM106.147 152.631H108.109V159.957H106.147V152.631ZM131.707 150.345H140.383V152.343H131.707V150.345ZM135.343 151.227H137.557V159.165H135.343V151.227ZM130.645 146.421H132.841V150.345C132.841 152.919 132.535 156.663 130.825 159.021C130.429 158.625 129.493 157.959 128.971 157.707C130.501 155.583 130.645 152.523 130.645 150.327V146.421ZM138.439 145.413L140.203 146.997C137.719 147.807 134.209 148.131 131.221 148.203C131.149 147.717 130.879 146.907 130.645 146.421C133.453 146.313 136.621 145.989 138.439 145.413ZM124.489 146.241L126.091 145.251C126.973 146.097 127.999 147.231 128.539 147.951L126.901 149.157C126.397 148.383 125.335 147.123 124.489 146.241ZM124.021 149.445H127.873V151.173H124.021V149.445ZM127.747 157.275C128.701 159.705 130.807 159.993 134.065 160.011C135.991 160.011 138.961 159.885 141.013 159.705C140.707 160.137 140.419 161.109 140.311 161.703C138.439 161.811 136.135 161.865 134.029 161.865C129.853 161.865 127.621 161.307 126.289 157.851L127.747 157.275ZM127.297 153.819H127.819L128.143 153.783L129.187 154.161C128.575 158.157 127.063 160.803 124.939 162.171C124.669 161.757 123.967 161.019 123.553 160.731C125.533 159.561 126.829 157.329 127.297 154.143V153.819ZM124.363 155.781V154.233L125.137 153.819H127.891L127.873 155.493H125.479C125.029 155.493 124.507 155.619 124.363 155.781ZM124.363 155.781C124.237 155.331 123.859 154.413 123.661 154.017C123.967 153.945 124.255 153.819 124.615 153.441C125.137 152.937 126.793 150.651 127.423 149.643V149.589L127.963 149.355L129.277 149.949C128.431 151.191 126.847 153.423 125.803 154.593C125.803 154.593 124.363 155.295 124.363 155.781ZM155.377 146.853L156.997 145.737C157.987 146.583 159.157 147.789 159.697 148.635L157.951 149.859C157.483 148.995 156.349 147.735 155.377 146.853ZM143.587 150.363H159.841V152.415H143.587V150.363ZM143.245 155.457C145.423 155.133 148.843 154.539 151.993 153.963L152.155 155.925C149.239 156.537 146.107 157.167 143.785 157.635L143.245 155.457ZM147.007 147.465H149.185V159.633C149.185 160.803 148.951 161.397 148.213 161.739C147.493 162.081 146.431 162.153 144.955 162.153C144.865 161.541 144.505 160.569 144.181 159.957C145.207 160.011 146.251 160.011 146.575 159.993C146.899 159.993 147.007 159.903 147.007 159.597V147.465ZM150.697 145.359L152.155 147.195C149.815 147.915 146.737 148.401 144.127 148.689C144.019 148.185 143.749 147.375 143.497 146.889C146.035 146.547 148.843 145.989 150.697 145.359ZM152.461 145.395H154.729C154.603 152.649 156.223 160.029 157.861 160.029C158.239 160.029 158.437 159.147 158.545 157.005C158.995 157.509 159.733 158.013 160.309 158.247C159.967 161.433 159.283 162.225 157.645 162.225C153.919 162.225 152.515 153.477 152.461 145.395ZM157.357 153.009L159.265 153.819C157.393 157.167 154.459 159.849 151.201 161.577C150.877 161.037 150.283 160.317 149.743 159.831C152.821 158.427 155.755 155.979 157.357 153.009ZM169.039 148.869H172.225V150.399H169.039V148.869ZM174.457 148.869H177.661V150.399H174.457V148.869ZM177.013 146.205H179.065V159.651C179.065 160.821 178.831 161.397 178.093 161.721C177.355 162.081 176.221 162.117 174.529 162.117C174.439 161.541 174.115 160.587 173.827 160.047C174.925 160.101 176.185 160.101 176.545 160.083C176.887 160.083 177.013 159.975 177.013 159.633V146.205ZM167.779 146.205H169.777V162.099H167.779V146.205ZM169.165 146.205H172.891V153.117H169.165V151.479H171.271V147.843H169.165V146.205ZM178.021 146.205V147.843H175.393V151.479H178.021V153.117H173.701V146.205H178.021ZM165.907 145.287L167.905 145.863C166.879 149.013 165.223 152.433 163.387 154.593C163.207 154.053 162.685 152.829 162.343 152.253C163.801 150.561 165.133 147.915 165.907 145.287ZM164.485 150.219L166.483 148.239L166.537 148.275V162.135H164.485V150.219ZM188.695 145.467H190.747V154.359H188.695V145.467ZM186.625 148.509H192.637V150.453H186.625V148.509ZM186.895 153.423H188.767V161.433H186.895V153.423ZM188.047 153.423H192.493V160.155H188.047V158.319H190.603V155.259H188.047V153.423ZM193.987 145.269L195.913 145.593C195.391 149.031 194.437 152.469 192.853 154.647C192.655 154.215 192.043 153.243 191.683 152.811C192.925 151.011 193.627 148.167 193.987 145.269ZM194.329 148.581H199.027V150.399H193.789L194.329 148.581ZM196.417 149.337L198.271 149.445C197.785 155.547 196.471 159.615 192.763 162.099C192.529 161.739 191.863 160.965 191.467 160.641C194.959 158.571 196.075 154.809 196.417 149.337ZM194.545 149.823C194.923 153.531 195.823 158.301 199.099 160.389C198.721 160.767 198.109 161.559 197.839 162.081C194.401 159.561 193.465 154.449 193.033 150.507L194.545 149.823ZM185.347 145.287L187.345 145.863C186.319 149.013 184.663 152.415 182.827 154.575C182.647 154.053 182.125 152.811 181.783 152.235C183.241 150.543 184.573 147.915 185.347 145.287ZM183.925 150.219L185.851 148.293L185.905 148.329V162.135H183.925V150.219ZM208.963 151.605H211.249V159.687C211.249 160.911 210.961 161.505 210.061 161.829C209.161 162.153 207.865 162.189 206.137 162.171C206.011 161.541 205.615 160.587 205.273 159.993C206.551 160.047 208.027 160.047 208.441 160.029C208.837 160.029 208.963 159.939 208.963 159.633V151.605ZM202.699 146.511H215.281V148.635H202.699V146.511ZM214.633 146.511H215.245L215.731 146.385L217.441 147.663C215.605 149.643 212.905 151.839 210.403 153.153C210.079 152.685 209.395 151.965 208.963 151.605C211.123 150.453 213.607 148.401 214.633 147.033V146.511ZM225.073 145.323L227.107 145.953C225.937 149.049 224.047 152.325 222.067 154.413C221.869 153.891 221.275 152.703 220.915 152.181C222.571 150.525 224.137 147.915 225.073 145.323ZM223.417 150.291L225.523 148.185V148.203V162.135H223.417V150.291ZM226.423 151.227H237.763V153.351H226.423V151.227ZM231.067 145.521H233.317V162.153H231.067V145.521ZM242.875 146.583H257.023V148.455H242.875V146.583ZM241.705 146.583H243.757V151.569C243.757 154.521 243.505 159.165 242.155 162.099C241.795 161.721 240.895 161.037 240.445 160.821C241.633 158.139 241.705 154.251 241.705 151.569V146.583ZM248.203 145.485L250.399 145.089C250.597 145.647 250.831 146.385 250.921 146.871L248.653 147.357C248.581 146.853 248.365 146.079 248.203 145.485ZM244.315 149.661H250.111V151.281H244.315V149.661ZM250.561 149.661H256.915V151.281H250.561V149.661ZM246.295 148.851H247.915V155.061H246.295V148.851ZM252.739 148.851H254.359V155.097H252.739V148.851ZM252.505 158.319L254.071 157.563C255.007 158.625 256.321 160.173 257.005 161.091L255.331 161.973C254.737 161.037 253.459 159.453 252.505 158.319ZM244.495 161.883L244.459 160.623L245.503 160.065L255.187 159.417C255.151 159.885 255.187 160.623 255.241 160.983C246.187 161.631 245.143 161.649 244.495 161.883ZM244.495 161.883C244.423 161.523 244.171 160.623 243.991 160.155C244.585 160.065 245.197 159.813 246.133 159.363C247.141 158.931 250.345 157.257 252.703 155.349L254.287 156.429C251.515 158.445 248.473 160.011 245.665 161.073V161.127C245.665 161.127 244.495 161.559 244.495 161.883ZM245.125 158.679L245.107 157.653L245.863 157.257L250.849 157.023C250.633 157.365 250.381 157.923 250.273 158.211C246.097 158.427 245.485 158.535 245.125 158.679ZM245.125 158.679C245.053 158.337 244.801 157.527 244.621 157.059C244.981 157.023 245.359 156.861 245.827 156.609C246.313 156.375 247.879 155.475 249.013 154.449L250.453 155.367C249.121 156.393 247.519 157.293 246.043 157.887V157.923C246.043 157.923 245.125 158.355 245.125 158.679ZM244.603 151.839H245.809V152.595C245.809 153.531 245.683 154.629 244.855 155.421C244.639 155.151 244.135 154.737 243.811 154.575C244.495 154.053 244.603 153.171 244.603 152.541V151.839ZM251.029 151.803H252.217V152.541C252.217 153.423 252.091 154.467 251.245 155.187C251.047 154.935 250.525 154.521 250.219 154.359C250.921 153.891 251.029 153.063 251.029 152.487V151.803ZM248.347 151.911H249.517V153.441C249.517 153.729 249.535 153.819 249.697 153.819C249.769 153.819 249.589 153.819 249.661 153.819C249.787 153.819 250.111 153.801 250.291 153.747C250.309 154.017 250.309 154.323 250.327 154.611C250.201 154.647 249.931 154.665 249.679 154.665C249.553 154.665 249.553 154.665 249.355 154.665C248.509 154.665 248.347 154.269 248.347 153.423V151.911ZM254.809 151.821H256.033V153.639C256.033 153.945 256.051 154.053 256.267 154.053C256.339 154.053 256.411 154.053 256.519 154.053C256.699 154.053 257.059 154.035 257.239 153.963C257.239 154.251 257.257 154.575 257.293 154.863C257.149 154.935 256.825 154.953 256.555 154.953C256.375 154.953 256.141 154.953 255.925 154.953C254.989 154.953 254.809 154.521 254.809 153.621V151.821ZM267.409 155.907L266.941 149.751L266.851 147.069H269.821L269.731 149.751L269.263 155.907H267.409ZM268.345 160.713C267.409 160.713 266.743 160.047 266.743 159.111C266.743 158.175 267.427 157.527 268.345 157.527C269.245 157.527 269.929 158.175 269.929 159.111C269.929 160.047 269.245 160.713 268.345 160.713ZM286.849 155.907L286.381 149.751L286.291 147.069H289.261L289.171 149.751L288.703 155.907H286.849ZM287.785 160.713C286.849 160.713 286.183 160.047 286.183 159.111C286.183 158.175 286.867 157.527 287.785 157.527C288.685 157.527 289.369 158.175 289.369 159.111C289.369 160.047 288.685 160.713 287.785 160.713Z" fill="#FCF6F1"/>
</svg>
